<svg xmlns="http://www.w3.org/2000/svg" xmlns:xlink="http://www.w3.org/1999/xlink" viewBox="0 0 239.478 234.857">
  <defs>
    <style>
      .cls-1, .cls-12 {
        fill: none;
      }

      .cls-2 {
        fill: rgba(0,0,0,0.02);
      }

      .cls-3 {
        fill: #e6e6e6;
      }

      .cls-4 {
        fill: #cbcbcb;
      }

      .cls-13, .cls-5 {
        fill: #fff;
      }

      .cls-6 {
        clip-path: url(#clip-path);
      }

      .cls-7 {
        fill: #ff4876;
      }

      .cls-8 {
        fill: #ff779a;
      }

      .cls-9 {
        fill: #ff4172;
      }

      .cls-10 {
        fill: #ff134f;
      }

      .cls-11 {
        fill: #ffc6cc;
      }

      .cls-12 {
        stroke: #ff134f;
        stroke-width: 1.5px;
      }

      .cls-13 {
        stroke: #fff;
        stroke-width: 0.8px;
      }

      .cls-14 {
        stroke: none;
      }
    </style>
    <clipPath id="clip-path">
      <rect class="cls-1" width="58.978" height="57.659"/>
    </clipPath>
  </defs>
  <g id="request-img" transform="translate(-106 -244.857)">
    <circle id="Ellipse_246" data-name="Ellipse 246" class="cls-2" cx="75" cy="75" r="75" transform="translate(149 307.857)"/>
    <rect id="Rectangle_263" data-name="Rectangle 263" class="cls-1" width="234.857" height="234.857" transform="translate(109 244.857)"/>
    <g id="Group_3792" data-name="Group 3792" transform="translate(138.266 291.677)">
      <g id="Group_3" data-name="Group 3" transform="translate(0 0)">
        <g id="Group_2" data-name="Group 2" transform="translate(32.59 49.898)">
          <path id="Path_1" data-name="Path 1" class="cls-3" d="M6.8,54.8v57.791a6.814,6.814,0,0,0,6.861,6.861h96.318a6.814,6.814,0,0,0,6.861-6.861V54.8Z" transform="translate(-6.668 -6.274)"/>
          <path id="Path_2" data-name="Path 2" class="cls-4" d="M114.365,60.076,65.282,24.187a5.937,5.937,0,0,0-7.125,0L9.207,60.076A6,6,0,0,0,6.7,64.958H116.74A6.065,6.065,0,0,0,114.365,60.076Z" transform="translate(-6.7 -16.432)"/>
          <path id="Path_3" data-name="Path 3" class="cls-5" d="M97.161,47.5H19.711c-1.187,0-2.111,1.472-2.111,3.366v97.606c0,1.893.924,3.366,2.111,3.366h77.45c1.187,0,2.111-1.472,2.111-3.366V50.866C99.272,48.973,98.349,47.5,97.161,47.5Z" transform="translate(-3.218 -47.5)"/>
          <g id="Repeat_Grid_1" data-name="Repeat Grid 1" class="cls-6" transform="translate(25.861 28.075)">
            <g id="Group_1" data-name="Group 1" transform="translate(-26.3 -60.3)">
              <path id="Path_5" data-name="Path 5" class="cls-7" d="M84.2,67.3h-57a.789.789,0,0,0-.8.8.86.86,0,0,0,.8.8h57a.789.789,0,0,0,.8-.8A.86.86,0,0,0,84.2,67.3Z" transform="translate(0 -7)"/>
            </g>
            <g id="Group_1-2" data-name="Group 1" transform="translate(-26.3 -52.3)">
              <path id="Path_5-2" data-name="Path 5" class="cls-7" d="M84.2,67.3h-57a.789.789,0,0,0-.8.8.86.86,0,0,0,.8.8h57a.789.789,0,0,0,.8-.8A.86.86,0,0,0,84.2,67.3Z" transform="translate(0 -7)"/>
            </g>
            <g id="Group_1-3" data-name="Group 1" transform="translate(-26.3 -44.3)">
              <path id="Path_5-3" data-name="Path 5" class="cls-7" d="M84.2,67.3h-57a.789.789,0,0,0-.8.8.86.86,0,0,0,.8.8h57a.789.789,0,0,0,.8-.8A.86.86,0,0,0,84.2,67.3Z" transform="translate(0 -7)"/>
            </g>
            <g id="Group_1-4" data-name="Group 1" transform="translate(-26.3 -36.3)">
              <path id="Path_5-4" data-name="Path 5" class="cls-7" d="M84.2,67.3h-57a.789.789,0,0,0-.8.8.86.86,0,0,0,.8.8h57a.789.789,0,0,0,.8-.8A.86.86,0,0,0,84.2,67.3Z" transform="translate(0 -7)"/>
            </g>
            <g id="Group_1-5" data-name="Group 1" transform="translate(-26.3 -28.3)">
              <path id="Path_5-5" data-name="Path 5" class="cls-7" d="M84.2,67.3h-57a.789.789,0,0,0-.8.8.86.86,0,0,0,.8.8h57a.789.789,0,0,0,.8-.8A.86.86,0,0,0,84.2,67.3Z" transform="translate(0 -7)"/>
            </g>
            <g id="Group_1-6" data-name="Group 1" transform="translate(-26.3 -20.3)">
              <path id="Path_5-6" data-name="Path 5" class="cls-7" d="M84.2,67.3h-57a.789.789,0,0,0-.8.8.86.86,0,0,0,.8.8h57a.789.789,0,0,0,.8-.8A.86.86,0,0,0,84.2,67.3Z" transform="translate(0 -7)"/>
            </g>
            <g id="Group_1-7" data-name="Group 1" transform="translate(-26.3 -12.3)">
              <path id="Path_5-7" data-name="Path 5" class="cls-7" d="M84.2,67.3h-57a.789.789,0,0,0-.8.8.86.86,0,0,0,.8.8h57a.789.789,0,0,0,.8-.8A.86.86,0,0,0,84.2,67.3Z" transform="translate(0 -7)"/>
            </g>
            <g id="Group_1-8" data-name="Group 1" transform="translate(-26.3 -4.3)">
              <path id="Path_5-8" data-name="Path 5" class="cls-7" d="M84.2,67.3h-57a.789.789,0,0,0-.8.8.86.86,0,0,0,.8.8h57a.789.789,0,0,0,.8-.8A.86.86,0,0,0,84.2,67.3Z" transform="translate(0 -7)"/>
            </g>
          </g>
          <path id="Path_7" data-name="Path 7" class="cls-8" d="M12,119.32h96.318a6.757,6.757,0,0,0,6.729-6.729V54.8Z" transform="translate(-5.007 -6.274)"/>
          <path id="Path_8" data-name="Path 8" class="cls-9" d="M6.8,54.8v57.923a6.757,6.757,0,0,0,6.729,6.729h96.318Z" transform="translate(-6.668 -6.274)"/>
        </g>
        <path id="Path_1585" data-name="Path 1585" class="cls-10" d="M35.16,3.2l1.722,9.228,8.394.732-8.394,1.8L35.16,23.12l-1.428-8.158L25.2,13.16l8.532-.732Z" transform="translate(4.764 -7.233)"/>
        <path id="Path_18" data-name="Path 18" class="cls-10" d="M32.044,3.2l1.183,6.341,5.768.5-5.768,1.238-1.183,5.606-.982-5.606L25.2,10.044l5.863-.5Z" transform="translate(75.127 -25.021)"/>
        <path id="Path_15" data-name="Path 15" class="cls-10" d="M32.476,3.2l1.258,6.741,6.131.535-6.131,1.316-1.258,5.959-1.043-5.959L25.2,10.476l6.232-.535Z" transform="translate(-27.586 51.229)"/>
        <path id="Path_12" data-name="Path 12" class="cls-11" d="M72.014.159A6.573,6.573,0,0,1,76.683,8.1,6.511,6.511,0,0,1,64.078,4.828,6.549,6.549,0,0,1,72.014.159Z" transform="translate(102.857 66.564)"/>
        <path id="Path_16" data-name="Path 16" class="cls-11" d="M68.872.1a4.04,4.04,0,0,1,2.869,4.878,4,4,0,1,1-7.748-2.009A4.025,4.025,0,0,1,68.872.1Z" transform="translate(-77.668 107.364)"/>
        <path id="Path_17" data-name="Path 17" class="cls-11" d="M68.872.1a4.04,4.04,0,0,1,2.869,4.878,4,4,0,1,1-7.748-2.009A4.025,4.025,0,0,1,68.872.1Z" transform="translate(95.294 117.589)"/>
        <path id="Path_13" data-name="Path 13" class="cls-11" d="M8.715,17.958A4.358,4.358,0,1,1,4.358,13.6,4.35,4.35,0,0,1,8.715,17.958Z" transform="translate(-4.253 16.552)"/>
        <g id="Ellipse_2" data-name="Ellipse 2" class="cls-12" transform="translate(-32.266 66.558)">
          <circle class="cls-14" cx="4.669" cy="4.669" r="4.669"/>
          <circle class="cls-1" cx="4.669" cy="4.669" r="3.919"/>
        </g>
        <g id="Ellipse_5" data-name="Ellipse 5" class="cls-12" transform="translate(12.865 -17.48)">
          <circle class="cls-14" cx="4.669" cy="4.669" r="4.669"/>
          <circle class="cls-1" cx="4.669" cy="4.669" r="3.919"/>
        </g>
        <g id="Ellipse_3" data-name="Ellipse 3" class="cls-12" transform="translate(75.778 -8.805)">
          <circle class="cls-14" cx="4.669" cy="4.669" r="4.669"/>
          <circle class="cls-1" cx="4.669" cy="4.669" r="3.919"/>
        </g>
        <g id="Ellipse_4" data-name="Ellipse 4" class="cls-12" transform="translate(171.372 95.458)">
          <circle class="cls-14" cx="4.669" cy="4.669" r="4.669"/>
          <circle class="cls-1" cx="4.669" cy="4.669" r="3.919"/>
        </g>
        <path id="Path_1586" data-name="Path 1586" class="cls-10" d="M32.269,3.2l1.222,6.549,5.957.52-5.957,1.279-1.222,5.79-1.014-5.79L25.2,10.269l6.055-.52Z" transform="translate(167.764 77.767)"/>
      </g>
      <g id="Group_4" data-name="Group 4" transform="translate(126.554 -9.362)">
        <path id="Path_14" data-name="Path 14" class="cls-10" d="M226.516,309.948l-4.324,14.172,12.868-4.167Z" transform="translate(-217.981 -257.24)"/>
        <path id="Path_20" data-name="Path 20" class="cls-10" d="M34.965,0A34.965,34.965,0,1,1,0,34.965,34.965,34.965,0,0,1,34.965,0Z" transform="translate(0 0)"/>
        <g id="calendar_1_" data-name="calendar (1)" transform="translate(17.152 18.472)">
          <path id="Path_1583" data-name="Path 1583" class="cls-13" d="M24.729,22.108V20H23.388v2.108H12.441V20H11.1v2.108H0V52.457H35.829V22.108ZM11.1,23.449v3.3h1.341v-3.3H23.388v2.874h1.341V23.449h9.759v5.4H1.341v-5.4ZM1.341,51.115V30.193H34.488V51.115Z" transform="translate(0 -20)"/>
          <path id="Path_1584" data-name="Path 1584" class="cls-5" d="M149.431,227l-3.7-3.748-1.259,1.317,4.958,4.958L157.2,221.6l-1.253-1.333Z" transform="translate(-132.293 -204.274)"/>
        </g>
      </g>
      <path id="Path_1582" data-name="Path 1582" class="cls-7" d="M1.319,0h9.236a1.319,1.319,0,0,1,1.319,1.319v9.236a1.319,1.319,0,0,1-1.319,1.319H1.319A1.319,1.319,0,0,1,0,10.555V1.319A1.319,1.319,0,0,1,1.319,0Z" transform="translate(58.055 60.415)"/>
    </g>
  </g>
</svg>
