<?xml version="1.0" standalone="no"?>
<!DOCTYPE svg PUBLIC "-//W3C//DTD SVG 1.1//EN" "http://www.w3.org/Graphics/SVG/1.1/DTD/svg11.dtd" >
<svg xmlns="http://www.w3.org/2000/svg">
<metadata>Generated by IcoMoon</metadata>
<defs>
<font id="icomoon" horiz-adv-x="1024">
<font-face units-per-em="1024" ascent="960" descent="-64" />
<missing-glyph horiz-adv-x="1024" />
<glyph unicode="&#x20;" horiz-adv-x="512" d="" />
<glyph unicode="&#xe900;" glyph-name="faq" horiz-adv-x="898" d="M448.806 960c-247.617 0-448.806-201.189-448.806-448.806 0-170.237 95.436-317.259 234.72-394.64l-7.738-180.554 203.768 126.388c5.159 0 12.897 0 18.055 0 247.617 0 448.806 201.189 448.806 448.806s-201.189 448.806-448.806 448.806zM443.647 828.453c49.008 0 87.698-36.111 87.698-82.539s-38.69-82.539-87.698-82.539c-49.008 0-87.698 36.111-87.698 82.539 0 43.849 38.69 82.539 87.698 82.539zM593.249 227.466h-273.411v51.587c0 0 69.642-5.159 69.642 51.587s0 183.134 0 183.134 5.159 54.166-77.38 54.166v30.952h219.244v-263.093c0 0-10.317-59.325 61.904-59.325v-49.008z" />
<glyph unicode="&#xe901;" glyph-name="view" horiz-adv-x="1449" d="M1439.087 415.502l-183.609 183.609c-295.262 295.262-774.133 295.262-1069.396 0l-178.646-178.646c-4.963-4.963-7.443-9.925-7.443-17.368s2.481-12.406 7.443-17.368l183.609-183.609c146.39-148.872 339.924-223.308 533.457-223.308s387.067 74.436 535.938 220.826l178.646 178.646c9.925 12.406 9.925 27.293 0 37.218zM1225.704 234.374c-275.413-275.413-724.509-275.413-999.921 0l-166.24 166.24 161.278 161.278c275.413 277.894 724.509 277.894 999.921 2.481l166.24-166.24-161.278-163.758zM697.209 599.11c-96.767 0-173.684-76.918-173.684-173.684 0-14.888 9.925-24.812 24.812-24.812s24.812 9.925 24.812 24.812c0 69.473 54.587 124.060 124.060 124.060 14.888 0 24.812 9.925 24.812 24.812s-9.925 24.812-24.812 24.812zM722.021 723.169c-178.646 0-322.555-143.909-322.555-322.555s143.909-322.555 322.555-322.555c178.646 0 322.555 143.909 322.555 322.555s-143.909 322.555-322.555 322.555zM722.021 127.683c-151.353 0-272.931 121.579-272.931 272.931s121.579 272.931 272.931 272.931 272.931-121.579 272.931-272.931-121.579-272.931-272.931-272.931z" />
<glyph unicode="&#xe902;" glyph-name="like" horiz-adv-x="978" d="M144.723 179.494c-49.434 0-88.276-38.841-88.276-88.276s38.841-88.276 88.276-88.276 88.276 38.841 88.276 88.276-38.841 88.276-88.276 88.276zM144.723 38.252c-30.014 0-52.966 22.952-52.966 52.966s22.952 52.966 52.966 52.966 52.966-22.952 52.966-52.966-22.952-52.966-52.966-52.966zM974.516 320.735c0 44.138-24.717 65.324-47.669 74.152 17.655 15.89 30.014 40.607 30.014 67.090 0 49.434-38.841 88.276-88.276 88.276h-254.234l12.359 60.028c17.655 79.448 5.297 171.255 1.766 197.738-7.062 61.793-61.793 130.648-121.821 130.648h-3.531c-28.248 0-75.917-15.89-75.917-123.586 0-141.241-35.31-206.566-65.324-236.579-28.248-28.248-56.497-28.248-58.262-28.248h-17.655v35.31h-282.483v-670.897h282.483v35.31h494.345c49.434 0 88.276 38.841 88.276 88.276 0 21.186-7.062 38.841-19.421 54.731 40.607 7.062 72.386 44.138 72.386 86.51 0 21.186-7.062 38.841-19.421 54.731 40.607 7.062 72.386 44.138 72.386 86.51zM38.792-50.024v600.276h211.862v-600.276h-211.862zM886.241 267.769h-194.207c-10.593 0-17.655-7.062-17.655-17.655s7.062-17.655 17.655-17.655h141.241c30.014 0 52.966-22.952 52.966-52.966s-22.952-52.966-52.966-52.966h-176.552c-10.593 0-17.655-7.062-17.655-17.655s7.062-17.655 17.655-17.655h123.586c30.014 0 52.966-22.952 52.966-52.966s-22.952-52.966-52.966-52.966h-494.345v529.655h17.655c1.766 0 42.372 0 82.979 37.076 49.434 49.434 75.917 137.71 75.917 263.062 0 33.545 5.297 88.276 40.607 88.276h3.531c38.841 0 81.214-54.731 88.276-100.634 3.531-24.717 14.124-111.228-1.766-185.379l-21.186-102.4h296.607c30.014 0 52.966-22.952 52.966-52.966s-22.952-52.966-52.966-52.966h-176.552c-10.593 0-17.655-7.062-17.655-17.655s7.062-17.655 17.655-17.655h123.586c15.89 0 49.434 0 68.855-3.531 45.903-7.062 54.731-24.717 54.731-49.434 0-30.014-22.952-52.966-52.966-52.966z" />
<glyph unicode="&#xe903;" glyph-name="influencer" horiz-adv-x="934" d="M477.538-85.333c-11.487 13.128-22.974 26.256-36.103 37.744-64 64-128 126.359-192 190.359-44.308 44.308-90.256 88.615-134.564 132.923-1.641 1.641-3.282 6.564-3.282 9.846 0 73.846 0 149.333 1.641 223.179 0 19.692 0 39.385 0 60.718 0 3.282 1.641 6.564 3.282 8.205 90.256 90.256 182.154 182.154 274.051 272.41 27.897 27.897 55.795 54.154 83.692 82.051 1.641 1.641 3.282 3.282 6.564 6.564 0-3.282 0-6.564 0-8.205 0-137.846 0-275.692 0-413.538 0-8.205 1.641-11.487 8.205-16.41 39.385-27.897 49.231-77.128 26.256-116.513-8.205-13.128-18.051-22.974-29.538-31.179-3.282-1.641-4.923-3.282-4.923-8.205 0-141.128 0-282.256 0-423.385 0-1.641 0-3.282 0-4.923-1.641 0-3.282-1.641-3.282-1.641zM776.205 57.436c-9.846 9.846-19.692 19.692-29.538 29.538 93.538 95.179 144.41 208.41 144.41 341.333s-49.231 247.795-142.769 342.974c9.846 9.846 19.692 19.692 29.538 29.538 203.487-193.641 211.692-538.256-1.641-743.385zM672.821 162.462c-11.487 9.846-21.333 21.333-31.179 31.179 68.923 62.359 108.308 141.128 108.308 236.308s-39.385 172.308-109.949 236.308c1.641 1.641 4.923 3.282 6.564 4.923 8.205 8.205 18.051 18.051 26.256 26.256 162.462-139.487 162.462-397.128 0-534.974zM538.256 297.026c96.821 62.359 95.179 201.846-3.282 264.205 9.846 9.846 19.692 21.333 31.179 31.179 1.641 1.641 4.923 0 6.564-1.641 26.256-19.692 45.949-42.667 60.718-72.205 44.308-85.333 18.051-195.282-59.077-251.077-1.641-1.641-3.282-1.641-3.282-3.282-11.487 9.846-21.333 21.333-32.821 32.821zM70.564 308.513c-4.923 4.923-9.846 9.846-14.769 16.41-18.051 19.692-32.821 39.385-45.949 62.359-13.128 24.615-13.128 47.59 0 72.205s31.179 47.59 50.872 67.282c3.282 3.282 6.564 6.564 11.487 11.487-1.641-77.128-1.641-152.615-1.641-229.744 0 0 0 0 0 0zM477.538-85.333c-11.487 13.128-22.974 26.256-36.103 37.744-64 64-128 126.359-192 190.359-44.308 44.308-90.256 88.615-134.564 132.923-1.641 1.641-3.282 6.564-3.282 9.846 0 73.846 0 149.333 1.641 223.179 0 19.692 0 39.385 0 60.718 0 3.282 1.641 6.564 3.282 8.205 90.256 90.256 182.154 182.154 274.051 272.41 27.897 27.897 55.795 54.154 83.692 82.051 1.641 1.641 3.282 3.282 6.564 6.564 0-3.282 0-6.564 0-8.205 0-137.846 0-275.692 0-413.538 0-8.205 1.641-11.487 8.205-16.41 39.385-27.897 49.231-77.128 26.256-116.513-8.205-13.128-18.051-22.974-29.538-31.179-3.282-1.641-4.923-3.282-4.923-8.205 0-141.128 0-282.256 0-423.385 0-1.641 0-3.282 0-4.923-1.641 0-3.282-1.641-3.282-1.641zM776.205 57.436c-9.846 9.846-19.692 19.692-29.538 29.538 93.538 95.179 144.41 208.41 144.41 341.333s-49.231 247.795-142.769 342.974c9.846 9.846 19.692 19.692 29.538 29.538 203.487-193.641 211.692-538.256-1.641-743.385zM672.821 162.462c-11.487 9.846-21.333 21.333-31.179 31.179 68.923 62.359 108.308 141.128 108.308 236.308s-39.385 172.308-109.949 236.308c1.641 1.641 4.923 3.282 6.564 4.923 8.205 8.205 18.051 18.051 26.256 26.256 162.462-139.487 162.462-397.128 0-534.974zM538.256 297.026c96.821 62.359 95.179 201.846-3.282 264.205 9.846 9.846 19.692 21.333 31.179 31.179 1.641 1.641 4.923 0 6.564-1.641 26.256-19.692 45.949-42.667 60.718-72.205 44.308-85.333 18.051-195.282-59.077-251.077-1.641-1.641-3.282-1.641-3.282-3.282-11.487 9.846-21.333 21.333-32.821 32.821zM70.564 308.513c-4.923 4.923-9.846 9.846-14.769 16.41-18.051 19.692-32.821 39.385-45.949 62.359-13.128 24.615-13.128 47.59 0 72.205s31.179 47.59 50.872 67.282c3.282 3.282 6.564 6.564 11.487 11.487-1.641-77.128-1.641-152.615-1.641-229.744 0 0 0 0 0 0z" />
<glyph unicode="&#xe904;" glyph-name="verified" d="M512 938.667c-282.8 0-512-229.2-512-512s229.2-512 512-512 512 229.2 512 512-229.2 512-512 512zM441.2 175.567l-223.3 223.1 77.5 77.4 145.9-145.8 284.8 284.6 77.4-77.4-362.3-361.9z" />
<glyph unicode="&#xe905;" glyph-name="patron-list" d="M136.517 699.766h-93.782c-27.23 0-42.613 14.895-42.735 41.784q-0.146 95.074 0 190.149c0.146 25.646 15.334 40.955 40.931 41.101q95.586 0 191.27 0c25.426-0.146 40.833-15.748 40.833-41.223q0-95.074 0-190.149c0-26.231-15.456-41.735-41.443-41.833-31.691 0-63.383 0.171-95.074 0.171zM273.034 461.129c0-31.691 0-63.383 0-95.074 0-26.45-15.188-41.735-41.443-41.784q-95.074-0.146-190.149 0c-26.304 0-41.443 15.383-41.443 41.735q0 95.074 0 190.149c0 25.451 15.626 41.223 40.906 41.223q95.074 0.146 190.149 0c26.938 0 42.003-15.188 42.101-42.393 0.049-31.301-0.122-62.578-0.122-93.855zM0 85.878c0 31.691 0 63.383 0 95.074 0.122 25.719 15.261 40.906 40.955 40.955q96.245 0.171 192.587 0c23.305 0 39.371-15.675 39.444-38.81q0.341-97.512 0-195.024c0-23.208-15.943-39.005-39.005-39.176q-97.512-0.293-195.024 0c-23.159 0.024-38.688 16.138-38.834 39.492-0.122 32.496-0.122 64.992-0.122 97.488zM700.284 426.732h280.348c28.62 0 43.247-14.627 43.247-43.564 0-5.704 0-11.385 0-17.065-0.268-26.45-15.261-41.735-41.443-41.784q-99.316-0.219-198.632 0h-363.233c-31.301 0-43.88 14.017-45.465 45.416-2.243 43.174 13.481 58.215 57.020 57.459 89.394-1.609 178.789-0.463 268.159-0.463zM699.894 870.412q-140.759 0-281.469 0c-28.035 0-42.808 14.846-42.93 42.783q0 8.557 0 17.065c-0.073 27.108 15.163 42.54 41.979 42.54q144.367 0 288.758 0h273.034c30.619 0 43.417-14.188 45.075-44.587 2.438-44.782-14.481-59.044-57.532-58.288-89.004 1.536-177.984 0.488-266.915 0.488zM699.918 699.766q-140.125 0-280.348 0c-29.522 0-44.149 14.627-44.149 43.88 0 5.266 0 10.556 0 15.821 0.195 27.888 15.041 42.686 43.247 42.686q79.789 0 159.603 0 199.217 0 398.435 0c33.959 0 46.075-13.554 47.61-47.001 1.853-40.541-13.652-56.63-56.362-55.899-89.321 1.487-178.691 0.512-268.037 0.512zM699.65 597.378h280.348c29.619 0 43.88-14.432 43.88-44.1 0-4.876 0-9.751 0-14.627 0-28.961-14.627-43.637-43.271-43.637q-137.102 0-274.18 0h-285.223c-31.886 0-44.539 13.871-46.172 46.026-2.17 42.32 13.798 57.63 56.435 56.898 89.467-1.633 178.837-0.561 268.183-0.561zM699.284 119.568q-140.149 0-280.348 0c-28.815 0-43.588 14.797-43.539 43.393 0 6.485 0 12.994 0 19.502 0.414 23.89 15.968 39.419 40.078 39.444q110.92 0.219 221.84 0h338.855c34.666 0 47.903-13.164 47.878-47.659 0-4.876 0-9.751 0-14.627-0.366-24.573-15.846-40.053-40.736-40.102-55.241-0.146-110.481 0-165.771 0q-59.166 0.049-118.258 0.049zM699.65 51.31h281.518c27.913 0 42.662-14.871 42.759-42.93q0-8.532 0-17.065c0-27.157-15.139-42.393-42.125-42.393q-140.759 0-281.493 0h-281.469c-28.693 0-43.295 14.627-43.369 43.539 0 5.29 0 10.556 0 15.846 0 27.962 14.944 43.003 42.735 43.027h273.034z" />
<glyph unicode="&#xe906;" glyph-name="share" d="M811.375 302.14c-58.897 0-111.415-28.066-145.010-71.442l-281.302 157.13c6.591 18.924 10.206 39.336 10.206 60.385 0 21.262-3.615 41.462-10.419 60.598l281.090 156.917c33.382-43.588 86.113-71.867 145.223-71.867 100.784 0 183.070 82.073 183.070 183.070s-82.073 183.070-183.070 183.070-183.070-82.073-183.070-183.070c0-21.262 3.615-41.674 10.419-60.598l-280.877-156.917c-33.382 43.801-86.113 71.867-145.223 71.867-100.784 0-183.070-82.073-183.070-183.070s82.286-183.070 183.282-183.070c59.11 0 111.841 28.279 145.435 72.080l281.090-157.13c-6.804-19.136-10.631-39.761-10.631-61.023 0-100.784 82.073-183.070 183.070-183.070s183.070 82.073 183.070 183.070-82.286 183.070-183.282 183.070zM811.375 902.379c69.316 0 125.661-56.346 125.661-125.661s-56.346-125.661-125.661-125.661-125.661 56.346-125.661 125.661 56.558 125.661 125.661 125.661zM212.625 322.551c-69.316 0-125.661 56.346-125.661 125.661s56.346 125.661 125.661 125.661 125.661-56.346 125.661-125.661-56.558-125.661-125.661-125.661zM811.375-6.379c-69.316 0-125.661 56.346-125.661 125.661s56.346 125.661 125.661 125.661 125.661-56.346 125.661-125.661c0-69.316-56.346-125.661-125.661-125.661z" />
<glyph unicode="&#xe907;" glyph-name="back" horiz-adv-x="662" d="M600.747-64l-600.747 512 600.747 512 61.44-71.68-515.413-440.32 515.413-436.907z" />
<glyph unicode="&#xe908;" glyph-name="camera" horiz-adv-x="1254" d="M1153.629 751.020h-177.633l-83.592 208.98h-530.808l-83.592-208.98h-27.167v104.49h-125.388v-104.49h-25.078c-54.335 0-100.31-45.976-100.31-100.31v-614.4c0-54.335 45.976-100.31 100.31-100.31h1051.167c56.424 0 100.31 45.976 100.31 100.31v614.4c2.090 54.335-43.886 100.31-98.22 100.31zM167.246 813.714h41.796v-62.694h-41.796v62.694zM1212.144 36.31c0-33.437-27.167-58.514-58.514-58.514h-1053.257c-31.347 0-58.514 27.167-58.514 58.514v614.4c0 31.347 27.167 58.514 58.514 58.514h206.89l83.592 208.98h472.294l83.592-208.98h206.89c31.347 0 58.514-27.167 58.514-58.514v-614.4zM627.001 771.918c-206.89 0-376.163-169.273-376.163-376.163s169.273-376.163 376.163-376.163c206.89 0 376.163 169.273 376.163 376.163s-169.273 376.163-376.163 376.163zM627.001 61.388c-183.902 0-334.367 150.465-334.367 334.367s150.465 334.367 334.367 334.367 334.367-150.465 334.367-334.367-150.465-334.367-334.367-334.367zM627.001 646.531c-137.927 0-250.776-112.849-250.776-250.776s112.849-250.776 250.776-250.776c137.927 0 250.776 112.849 250.776 250.776s-112.849 250.776-250.776 250.776zM627.001 186.776c-114.939 0-208.98 94.041-208.98 208.98s94.041 208.98 208.98 208.98c114.939 0 208.98-94.041 208.98-208.98s-94.041-208.98-208.98-208.98zM1086.756 667.429c-45.976 0-83.592-37.616-83.592-83.592s37.616-83.592 83.592-83.592 83.592 37.616 83.592 83.592-37.616 83.592-83.592 83.592zM1086.756 542.041c-22.988 0-41.796 18.808-41.796 41.796s18.808 41.796 41.796 41.796 41.796-18.808 41.796-41.796-18.808-41.796-41.796-41.796z" />
<glyph unicode="&#xe909;" glyph-name="account" horiz-adv-x="1014" d="M1014.402 460.8c0 280.344-226.858 507.202-507.202 507.202s-507.202-226.858-507.202-507.202c0-147.549 62.709-280.344 164.149-374.407v0l16.599-14.755c1.845 0 1.845-1.845 3.689-1.845 9.222-7.377 18.444-14.755 27.665-20.288 3.689-1.845 5.533-3.689 9.222-5.533 9.222-7.377 20.288-12.911 29.51-18.444 1.845-1.845 5.533-1.845 7.377-3.689 11.066-5.533 22.133-12.911 35.044-18.444 1.845 0 1.845 0 3.689-1.845 38.732-18.444 79.308-31.354 121.729-38.732 1.845 0 1.845 0 3.689 0 12.911-1.845 27.665-3.689 40.576-5.533 1.845 0 3.689 0 5.533 0 11.066-3.689 23.977-3.689 38.732-3.689 12.911 0 27.665 0 40.576 1.845 1.845 0 3.689 0 5.533 0 12.911 1.845 27.665 3.689 40.576 5.533 1.845 0 1.845 0 3.689 0 42.421 7.377 82.997 20.288 121.729 38.732 1.845 0 3.689 1.845 3.689 1.845 11.066 5.533 22.133 11.066 33.199 16.599 1.845 1.845 5.533 3.689 7.377 5.533 9.222 5.533 20.288 11.066 29.51 18.444 3.689 1.845 7.377 5.533 11.066 7.377 7.377 5.533 14.755 11.066 22.133 16.599 1.845 1.845 3.689 3.689 5.533 3.689l16.599 14.755c101.44 94.063 165.994 226.858 165.994 376.252zM36.885 460.8c0 260.056 210.258 470.315 470.315 470.315s470.315-210.258 470.315-470.315c0-140.172-60.864-265.59-158.616-352.275-5.533 3.689-11.066 7.377-16.599 9.222l-156.772 77.463c-14.755 7.377-22.133 20.288-22.133 36.887v55.332c3.689 3.689 7.377 9.222 11.066 14.755 20.288 27.665 36.887 60.864 47.953 94.063 23.977 11.066 38.732 35.044 38.732 60.864v64.553c0 16.599-5.533 31.354-16.599 44.265v88.53c1.845 9.222 3.689 62.709-35.044 108.818-33.199 36.887-88.53 57.175-162.305 57.175s-129.106-20.288-164.149-59.020c-38.732-44.265-35.044-97.751-35.044-108.818v-86.685c-11.066-12.911-16.599-27.665-16.599-44.265v-64.553c0-20.288 9.222-38.732 23.977-51.642 14.755-59.020 46.109-103.285 57.175-118.039v-53.487c0-14.755-7.377-29.51-22.133-36.887l-143.861-77.463c-5.533-1.845-9.222-5.533-14.755-9.222-94.063 86.685-154.927 212.103-154.927 350.43zM782.011 79.015c-5.533-3.689-12.911-9.222-18.444-12.911-3.689-1.845-5.533-3.689-9.222-5.533-9.222-5.533-16.599-11.066-25.821-14.755-1.845-1.845-3.689-1.845-5.533-3.689-20.288-11.066-42.421-20.288-64.553-27.665 0 0-1.845 0-1.845 0-23.977-7.377-47.953-12.911-71.931-18.444 0 0 0 0 0 0-11.066-1.845-22.133-3.689-35.044-3.689-1.845 0-3.689 0-5.533 0-11.066 0-22.133-1.845-35.044-1.845-11.066 0-23.977 0-35.044 1.845-1.845 0-3.689 0-5.533 0-11.066 1.845-23.977 1.845-35.044 3.689 0 0-1.845 0-1.845 0-23.977 3.689-47.953 9.222-71.931 18.444 0 0-1.845 0-1.845 0-11.066 3.689-23.977 9.222-35.044 12.911 0 0 0 0 0 0-11.066 5.533-22.133 9.222-31.354 14.755-1.845 0-1.845 1.845-3.689 1.845-9.222 5.533-18.444 11.066-27.665 16.599-1.845 1.845-5.533 3.689-7.377 5.533-9.222 5.533-16.599 11.066-23.977 16.599 0 0-1.845 1.845-1.845 1.845s1.845 0 1.845 1.845l145.706 79.308c25.821 12.911 40.576 40.576 40.576 68.241v66.397l-3.689 5.533c0 0-40.576 47.953-55.332 114.351l-5.533 9.222-7.377 3.689c-9.222 5.533-14.755 14.755-14.755 25.821v64.553c0 9.222 3.689 16.599 11.066 22.133l5.533 5.533v105.13c0 0-5.533 46.109 25.821 81.152 25.821 29.51 71.931 46.109 134.639 46.109s108.818-14.755 134.639-46.109c31.354-35.044 25.821-81.152 25.821-81.152v-105.13l5.533-5.533c7.377-5.533 11.066-14.755 11.066-22.133v-64.553c0-12.911-9.222-25.821-22.133-29.51l-9.222-3.689-3.689-9.222c-11.066-33.199-25.821-64.553-46.109-92.219-5.533-7.377-9.222-12.911-12.911-16.599l-3.689-5.533v-68.241c0-29.51 16.599-57.175 42.421-70.086l156.772-77.463c1.845 0 1.845-1.845 3.689-1.845 0-1.845-3.689-3.689-5.533-5.533z" />
<glyph unicode="&#xe90a;" glyph-name="broadcasts" d="M428.009 560.132c59.829 0 105.852 48.323 105.852 105.852s-48.323 105.852-105.852 105.852-105.852-48.323-105.852-105.852 46.023-105.852 105.852-105.852zM428.009 728.114c34.517 0 59.829-27.613 59.829-59.829s-27.613-59.829-59.829-59.829-59.829 27.613-59.829 59.829 25.313 59.829 59.829 59.829zM533.861 194.253c0 59.829-48.323 105.852-105.852 105.852s-105.852-48.323-105.852-105.852 48.323-105.852 105.852-105.852 105.852 46.023 105.852 105.852zM365.878 194.253c0 34.517 27.613 59.829 59.829 59.829s59.829-27.613 59.829-59.829-27.613-59.829-59.829-59.829-59.829 25.313-59.829 59.829zM665.025 323.116c59.829 0 105.852 48.323 105.852 105.852 0 59.829-48.323 105.852-105.852 105.852s-105.852-48.323-105.852-105.852c-2.301-57.528 46.023-105.852 105.852-105.852zM665.025 491.098c34.517 0 59.829-27.613 59.829-59.829s-27.613-59.829-59.829-59.829-59.829 27.613-59.829 59.829 25.313 59.829 59.829 59.829zM190.993 537.121c-59.829 0-105.852-48.323-105.852-105.852 0-59.829 48.323-105.852 105.852-105.852s105.852 48.323 105.852 105.852c0 57.528-46.023 105.852-105.852 105.852zM190.993 369.139c-34.517 0-59.829 27.613-59.829 59.829s27.613 59.829 59.829 59.829 59.829-27.613 59.829-59.829-25.313-59.829-59.829-59.829zM1000.989 44.681h-381.986c140.369 71.335 234.714 214.005 234.714 381.986 2.301 237.016-190.993 428.009-425.708 428.009-237.016 0-428.009-190.993-428.009-428.009s190.993-428.009 428.009-428.009h572.98c13.807 0 23.011 9.205 23.011 23.011s-9.205 23.011-23.011 23.011zM46.023 426.667c0 211.703 170.283 381.986 381.986 381.986s381.986-170.283 381.986-381.986c0-209.403-170.283-381.986-381.986-381.986s-381.986 172.585-381.986 381.986z" />
<glyph unicode="&#xe90b;" glyph-name="dashboard" d="M102.4 819.201h187.733c10.24 0 17.067 6.826 17.067 17.067s-6.826 17.067-17.067 17.067h-187.733c-10.24 0-17.067-6.826-17.067-17.067s6.826-17.067 17.067-17.067zM358.4 819.201h153.6c10.24 0 17.067 6.826 17.067 17.067s-6.826 17.067-17.067 17.067h-153.6c-10.24 0-17.067-6.826-17.067-17.067s6.826-17.067 17.067-17.067zM221.867 768.001c0 10.24-6.826 17.067-17.067 17.067h-102.4c-10.24 0-17.067-6.826-17.067-17.067s6.826-17.067 17.067-17.067h102.4c10.24 0 17.067 6.826 17.067 17.067zM273.067 785.068c-10.24 0-17.067-6.826-17.067-17.067s6.826-17.067 17.067-17.067h153.6c10.24 0 17.067 6.826 17.067 17.067s-6.826 17.067-17.067 17.067h-153.6zM512 785.068h-17.067c-10.24 0-17.067-6.826-17.067-17.067s6.826-17.067 17.067-17.067h17.067c10.24 0 17.067 6.826 17.067 17.067s-6.826 17.067-17.067 17.067zM947.2 938.668h-870.399c-42.666 0-76.8-34.133-76.8-76.8v-597.333c0-42.666 34.133-76.8 76.8-76.8h327.68l-25.6-102.4h-3.413c-47.787 0-85.334-37.547-85.334-85.334 0-10.24 6.826-17.067 17.067-17.067h409.6c10.24 0 17.067 6.826 17.067 17.067 0 47.787-37.547 85.334-85.334 85.334h-3.413l-25.6 102.4h327.68c42.666 0 76.8 34.133 76.8 76.8v597.333c0 42.666-34.133 76.8-76.8 76.8zM34.133 861.867c0 23.893 18.773 42.666 42.666 42.666h870.399c23.893 0 42.666-18.773 42.666-42.666v-503.467h-955.733v503.467zM696.32 17.067h-368.64c6.826 20.48 25.6 34.133 47.787 34.133h273.066c22.186 0 40.96-13.654 47.787-34.133zM609.28 85.334h-194.56l25.6 102.4h143.36l25.6-102.4zM989.867 264.534c0-23.893-18.773-42.666-42.666-42.666h-870.399c-23.893 0-42.666 18.773-42.666 42.666v59.733h955.733v-59.733zM853.334 580.268c-8.533 0-15.36-1.707-22.186-3.413l-83.627 83.627c3.413 6.826 3.413 15.36 3.413 22.186 0 37.547-30.72 68.267-68.267 68.267s-68.267-30.72-68.267-68.267c0-8.533 1.707-15.36 3.413-22.186l-122.88-124.587c-10.24 6.826-22.186 10.24-34.133 10.24-8.533 0-15.36-1.707-22.186-3.413l-32.427 32.427c3.413 6.826 3.413 15.36 3.413 22.186 0 37.547-30.72 68.267-68.267 68.267s-68.267-30.72-68.267-68.267c0-8.533 1.707-15.36 3.413-22.186l-32.427-32.427c-6.826 1.707-13.654 3.413-22.186 3.413-37.547 0-68.267-30.72-68.267-68.267s30.72-68.267 68.267-68.267 68.267 30.72 68.267 68.267c0 17.067-6.826 32.427-17.067 44.373l23.893 23.893c11.947-10.24 27.307-17.067 44.373-17.067s32.427 6.826 44.373 17.067l23.893-23.893c-10.24-11.947-17.067-27.307-17.067-44.373 0-37.547 30.72-68.267 68.267-68.267s68.267 30.72 68.267 68.267c0 11.947-3.413 23.893-10.24 34.133l119.467 119.467c11.947-10.24 27.307-17.067 44.373-17.067s32.427 6.826 44.373 17.067l75.093-75.093c-10.24-11.947-17.067-27.307-17.067-44.373 0-37.547 30.72-68.267 68.267-68.267s68.267 30.72 68.267 68.267-30.72 68.267-68.267 68.267zM221.867 443.734c-18.773 0-34.133 15.36-34.133 34.133s15.36 34.133 34.133 34.133 34.133-15.36 34.133-34.133-15.36-34.133-34.133-34.133zM341.333 563.201c-18.773 0-34.133 15.36-34.133 34.133s15.36 34.133 34.133 34.133 34.133-15.36 34.133-34.133-15.36-34.133-34.133-34.133zM460.8 443.734c-18.773 0-34.133 15.36-34.133 34.133s15.36 34.133 34.133 34.133 34.133-15.36 34.133-34.133-15.36-34.133-34.133-34.133zM682.667 648.534c-18.773 0-34.133 15.36-34.133 34.133s15.36 34.133 34.133 34.133 34.133-15.36 34.133-34.133-15.36-34.133-34.133-34.133zM853.334 477.868c-18.773 0-34.133 15.36-34.133 34.133s15.36 34.133 34.133 34.133 34.133-15.36 34.133-34.133-15.36-34.133-34.133-34.133z" />
<glyph unicode="&#xe90c;" glyph-name="menu-faq" d="M512 972.8c-281.6 0-512-230.4-512-512s230.4-512 512-512c281.6 0 512 230.4 512 512s-230.4 512-512 512zM512-11.815c-259.938 0-472.615 212.677-472.615 472.615s212.677 472.615 472.615 472.615 472.615-212.677 472.615-472.615-212.677-472.615-472.615-472.615zM512 244.185c-11.815 0-19.692-7.877-19.692-19.692v-39.385c0-11.815 7.877-19.692 19.692-19.692s19.692 7.877 19.692 19.692v39.385c0 11.815-7.877 19.692-19.692 19.692zM513.969 795.569c-43.323 0-82.708-15.754-112.246-45.292-31.508-29.538-47.262-68.923-47.262-112.246 0-11.815 7.877-19.692 19.692-19.692s19.692 7.877 19.692 19.692c0 31.508 11.815 61.046 35.446 84.677 23.631 21.662 53.169 35.446 84.677 33.477 63.015 0 116.185-55.138 116.185-116.185 0-41.354-19.692-78.769-55.138-100.431-53.169-33.477-82.708-92.554-82.708-159.508v-57.108c0-11.815 7.877-19.692 19.692-19.692s19.692 7.877 19.692 19.692v55.138c0 51.2 25.6 100.431 64.985 126.031 45.292 29.538 72.862 80.738 72.862 133.908-1.969 86.646-70.892 155.569-155.569 157.538z" />
<glyph unicode="&#xe90d;" glyph-name="rules" horiz-adv-x="1026" d="M947.916 477.93l-850.795 491.063c-5.71 3.807-13.323 3.807-19.034 0s-9.516-9.516-9.516-17.13v-984.030c0-7.613 3.807-13.323 9.516-17.13 3.807-1.903 5.71-1.903 9.516-1.903s5.71 0 9.516 1.903l310.245 178.915c9.516 5.71 11.42 17.13 7.613 26.647-5.71 9.516-17.13 11.42-26.647 7.613l-281.695-161.784v917.413l793.696-458.706-418.736-234.111v218.885c0 11.42-7.613 19.034-19.034 19.034s-19.034-7.613-19.034-19.034v-239.821c0-3.807 1.903-5.71 1.903-9.516s0-7.613 1.903-9.516c5.71-9.516 17.13-13.323 26.647-7.613l473.933 266.468c5.71 3.807 9.516 9.516 9.516 17.13s-3.807 11.42-9.516 15.226zM491.113 512.19v3.807c0 15.226-13.323 28.55-28.55 28.55s-28.55-13.323-28.55-28.55v-3.807c0-15.226 13.323-28.55 28.55-28.55s28.55 13.323 28.55 28.55z" />
<glyph unicode="&#xe90e;" glyph-name="notification" horiz-adv-x="1028" d="M958.042 116.597c-87.505 85.644-130.327 188.044-130.327 303.476v167.564c0 128.465-85.644 212.247-158.255 245.76-20.48 9.309-42.822 16.756-65.164 22.342v11.171c0 52.131-40.96 93.091-93.091 93.091s-93.091-40.96-93.091-93.091v-13.033c-20.48-5.585-39.098-13.033-57.716-20.48-81.92-37.236-165.702-128.465-165.702-245.76v-167.564c0-119.156-42.822-221.556-124.742-303.476-5.585-5.585-7.447-13.033-3.724-18.618 1.862-7.447 7.447-11.171 14.895-13.033l176.873-29.789c33.513-5.585 63.302-11.171 91.229-14.895 31.651-63.302 96.815-104.262 165.702-104.262s134.051 40.96 165.702 104.262c27.927 3.724 59.578 9.309 91.229 14.895l176.873 29.789c7.447 1.862 13.033 5.585 14.895 13.033s0 13.033-5.585 18.618zM455.352 866.909c0 31.651 24.204 55.855 55.855 55.855s55.855-24.204 55.855-55.855v-3.724c-37.236 5.585-74.473 5.585-111.709 0v3.724zM514.93-26.762c-46.545 0-91.229 24.204-119.156 61.44 40.96-3.724 80.058-5.585 119.156-5.585s78.196 1.862 119.156 5.585c-27.927-37.236-72.611-61.44-119.156-61.44zM766.275 90.532c-35.375-5.585-68.887-11.171-98.676-14.895 0 0 0 0 0 0-13.033-1.862-26.065-3.724-39.098-3.724 0 0 0 0 0 0-11.171-1.862-24.204-1.862-35.375-3.724-1.862 0-3.724 0-5.585 0-11.171 0-20.48-1.862-29.789-1.862-1.862 0-3.724 0-5.585 0-24.204 0-46.545 0-70.749 0-1.862 0-3.724 0-5.585 0-9.309 0-20.48 0-29.789 1.862-1.862 0-3.724 0-5.585 0-11.171 0-22.342 1.862-35.375 3.724 0 0 0 0 0 0-13.033 1.862-26.065 3.724-39.098 3.724 0 0 0 0 0 0-31.651 3.724-63.302 9.309-100.538 14.895 0 0 0 0 0 0l-145.222 26.065c74.473 85.644 111.709 186.182 111.709 303.476v167.564c0 100.538 72.611 178.735 143.36 212.247 20.48 9.309 42.822 16.756 65.164 22.342 0 0 0 0 0 0 46.545 11.171 94.953 11.171 141.498 1.862 0 0 0 0 0 0 24.204-5.585 48.407-13.033 70.749-22.342 68.887-31.651 137.775-109.847 137.775-212.247v-167.564c0-111.709 40.96-215.971 117.295-303.476l-141.498-27.927zM630.363 749.616c-72.611 33.513-160.116 33.513-232.727 0-40.96-18.618-109.847-74.473-109.847-161.978 0-11.171 7.447-18.618 18.618-18.618 0 0 0 0 0 0 9.309 0 18.618 7.447 18.618 18.618 0 68.887 55.855 111.709 89.367 128.465 61.44 27.927 137.775 27.927 201.076 0 9.309-3.724 20.48 0 24.204 9.309s0 18.618-9.309 24.204z" />
<glyph unicode="&#xe90f;" glyph-name="golive" d="M991.663 645.625c-10.774 7.295-24.057 11.648-38.357 11.655h-0.001c-0.002 0-0.005 0-0.008 0-10.757 0-20.948-2.419-30.059-6.744l0.426 0.182-130.949-61.588-1.226 6.939c-5.174 29.346-32.606 52.318-62.45 52.318h-78.645v84.128c0 31.771-26.893 58.718-58.718 58.718h-567.746c-11.561 0-22.083-10.523-22.083-22.083 0-12.287 10.779-23.916 22.083-23.916h569.579c6.877-0.349 12.364-5.841 12.704-12.688l0.001-0.031v-84.101h-541.998c-35.453-0.046-64.178-28.785-64.201-64.239v-450.529c0.038-35.445 28.757-64.169 64.197-64.214h664.827c30.625 0 57.478 22.474 62.436 52.277l1.172 6.979 129.265-59.823c8.481-4.259 18.481-6.754 29.064-6.754 0.525 0 1.050 0.006 1.572 0.019l-0.078-0.001c14.889 0 28.038 4.042 39.073 11.843l0.094 0.068c19.503 12.96 32.214 34.793 32.336 59.602v450.532c0.027 25.33-11.776 47.723-32.31 61.452zM953.075 106.536c-3.617 0.016-7.060 0.743-10.203 2.046l0.179-0.066-147.98 69.308v362.154l148.087 69.362c3.020 1.236 6.524 1.954 10.196 1.954 0.034 0 0.069 0 0.103 0h-0.005c5.565 0 11.493-1.697 14.821-4.204l0.148-0.121 0.162-0.081c5.471-3.139 11.318-10.779 11.318-22.703v-450.554c0-12.221-7.68-19.294-10.199-21.625l-0.135-0.108c-0.148-0.148-0.296-0.269-0.404-0.391l-0.619-0.619-0.782-0.391c-4.242-2.363-9.279-3.812-14.641-3.96l-0.045-0.001zM46.012 586.004c-0.003 0.117-0.004 0.256-0.004 0.395 0 9.837 7.975 17.812 17.812 17.812 0.139 0 0.278-0.001 0.416-0.005l-0.021 0.001h664.823c0.117 0.003 0.256 0.004 0.395 0.004 9.837 0 17.812-7.975 17.812-17.812 0-0.139-0.001-0.278-0.005-0.416l0.001 0.021v-446.983h1.9v-5.389c0.003-0.117 0.004-0.256 0.004-0.395 0-9.837-7.975-17.812-17.812-17.812-0.144 0-0.287 0.001-0.43 0.005l0.021-0.001h-666.709c-0.117-0.003-0.256-0.004-0.395-0.004-9.837 0-17.812 7.975-17.812 17.812 0 0.139 0.001 0.278 0.005 0.416l-0.001-0.021z" />
<glyph unicode="&#xe910;" glyph-name="home" d="M12.687 841.1l-0.302-687.5 460.649-0.906v-95.453h-146.804c-15.405 0-27.488-12.083-27.488-27.488s12.083-27.488 27.488-27.488h368.217c15.405 0 28.092 12.083 28.092 27.488s-12.385 27.488-28.092 27.488h-146.804v95.453l460.649-1.51-0.604 689.916h-995.002zM965.399 793.978v-593.558c0-3.625-1.51-5.135-5.135-5.135h-900.455c-3.625 0-5.135 1.51-5.135 5.135v598.693h910.424v-5.135zM54.976 326.986c0 0 199.967 0.604 456.42 50.445s454.004 218.393 454.004 218.393v202.383l-910.424 0.906v-472.127z" />
<glyph unicode="&#xe911;" glyph-name="logout" horiz-adv-x="1028" d="M1028.267 460.801c0 0 0 1.94 0 1.94 0 1.94 0 3.881 0 3.881s0 1.94 0 1.94-1.94 3.881-3.881 5.821l-232.815 232.815c-7.76 7.76-19.401 7.76-27.162 0s-7.76-19.401 0-27.162l197.893-199.833h-593.678c-11.641 0-19.401-7.76-19.401-19.401s7.76-19.401 19.401-19.401h593.678l-199.833-199.833c-7.76-7.76-7.76-19.401 0-27.162 3.881-3.881 9.701-5.821 13.581-5.821s9.701 1.94 13.581 5.821l232.815 232.815c0 0 0 0 0 0 1.94 1.94 3.881 3.881 3.881 5.821 0 0 0 0 0 0s0 0 0 0c1.94 3.881 1.94 5.821 1.94 7.76zM679.044 286.19c-11.641 0-19.401-7.76-19.401-19.401v-104.767c0-48.503-40.743-89.246-89.246-89.246h-442.349c-48.503 0-89.246 40.743-89.246 89.246v597.559c0 48.503 40.743 89.246 89.246 89.246h442.349c48.503 0 89.246-40.743 89.246-89.246v-104.767c0-11.641 7.76-19.401 19.401-19.401s19.401 7.76 19.401 19.401v104.767c0 69.845-58.204 128.049-128.049 128.049h-442.349c-69.845 0-128.049-58.204-128.049-128.049v-597.559c0-69.845 58.204-128.049 128.049-128.049h442.349c71.784 0 128.049 58.204 128.049 128.049v104.767c0 11.641-7.76 19.401-19.401 19.401z" />
<glyph unicode="&#xe912;" glyph-name="messages" d="M530.533 938.667c-272.020 0-493.153-221.134-493.153-493.153 0-102.4 30.783-199.774 89.207-282.699l-126.587-248.147 247.833 126.587c83.239-58.425 180.613-89.207 283.013-89.207 272.020 0 493.153 221.448 493.153 493.153 0 272.334-221.448 493.467-493.467 493.467zM280.187 384.89c-33.61 0-60.623 27.013-60.623 60.623s27.013 60.623 60.623 60.623 60.623-27.013 60.623-60.623c0-33.61-27.013-60.623-60.623-60.623zM527.706 384.89c-33.61 0-60.623 27.013-60.623 60.623s27.328 60.623 60.623 60.623 60.623-27.013 60.623-60.623c0.314-33.61-27.013-60.623-60.623-60.623zM775.225 384.89c-33.61 0-60.623 27.013-60.623 60.623s27.328 60.623 60.623 60.623c33.61 0 60.623-27.013 60.623-60.623s-27.013-60.623-60.623-60.623z" />
<glyph unicode="&#xe913;" glyph-name="moments" d="M0 881.778v-909.084h1022.862v909.084h-1022.862zM201.007 66.75h-107.71v107.71h107.71v-107.71zM201.007 271.171h-107.71v107.71h107.71v-107.71zM201.007 475.591h-107.71v107.71h107.71v-107.71zM201.007 680.391h-107.71v107.71h107.71v-107.71zM929.564 66.75h-107.71v107.71h107.71v-107.71zM929.564 271.171h-107.71v107.71h107.71v-107.71zM929.564 475.591h-107.71v107.71h107.71v-107.71zM929.564 680.391h-107.71v107.71h107.71v-107.71z" />
<glyph unicode="&#xe914;" glyph-name="referral" d="M193.778 192.355c-88.889 80-142.222 190.223-149.333 309.333-8.889 120.889 32 238.222 112 328.889l-26.667 23.111c-87.111-97.778-129.778-224-120.889-353.778 7.111-128 64-243.556 158.223-330.667l16 12.444c1.778 3.556 5.334 7.111 10.666 10.666zM496.001 76.799c1.778 0 5.334 0 7.111 0-5.334 0-10.666 0-17.778 0 3.556 0 7.111 0 10.666 0zM773.334 126.577c-21.333-16-44.445-28.444-69.333-39.111 24.889 10.666 48 24.889 69.333 39.111zM222.222 169.243c0-1.778 0-1.778 0 0 0-1.778 0-1.778 0 0 0 0 0 0 0 0zM1020.446 857.244l-211.556 24.889-8.889-213.334 35.556-1.778 7.111 154.667c144-168.889 144-424.889-5.334-593.778-12.444-14.222-24.889-26.667-39.111-39.111 3.556-3.556 8.889-5.334 12.444-8.889l16-14.222c12.444 12.444 24.889 24.889 37.333 37.333 156.445 181.333 160 453.334 10.666 636.445l142.222-16 3.556 33.778zM796.446 190.577c-5.334 3.556-10.666 7.111-16 8.889l-151.111 74.667c-14.222 7.111-21.333 19.556-21.333 35.556v53.333c3.556 3.556 7.111 8.889 10.666 14.222 19.556 26.667 35.556 58.667 46.223 90.667 23.111 10.666 37.333 33.778 37.333 58.667v62.223c0 16-5.334 30.222-16 42.667v83.556c1.778 8.889 3.556 60.445-33.778 104.889-32 37.333-85.333 56.889-158.223 56.889-71.111 0-124.444-19.556-158.223-56.889-37.333-42.667-33.778-94.222-33.778-104.889v-81.778c-10.666-12.444-16-26.667-16-42.667v-64c0-19.556 8.889-37.333 23.111-49.778 14.222-56.889 44.445-99.556 55.111-113.778v-51.555c0-14.222-7.111-28.444-21.333-35.556l-140.444-76.445c-5.334-1.778-8.889-5.334-14.222-8.889-3.556-3.556-8.889-5.334-12.444-8.889l-16-12.444 16-14.222c3.556-3.556 7.111-5.334 12.444-8.889 7.111-5.334 12.444-10.666 19.556-16 5.334-3.556 8.889-7.111 14.222-8.889 7.111-5.334 14.222-10.666 23.111-14.222 3.556-1.778 7.111-3.556 12.444-5.334 8.889-5.334 17.778-8.889 26.667-14.222 3.556-1.778 7.111-1.778 8.889-3.556 10.666-3.556 19.556-8.889 30.222-12.444 5.334-1.778 10.666-3.556 14.222-5.334 8.889-3.556 16-5.334 24.889-8.889 40.889-10.666 83.556-17.778 128-17.778 3.556 0 8.889 0 12.444 0 7.111 0 12.444 0 19.556 0 5.334 0 12.444 0 17.778 1.778 8.889 1.778 19.556 1.778 28.444 3.556 5.334 0 10.666 1.778 14.222 3.556 8.889 1.778 17.778 3.556 26.667 5.334 3.556 1.778 7.111 1.778 10.666 3.556 10.666 3.556 19.556 5.334 30.222 8.889 1.778 1.778 5.334 1.778 7.111 3.556 12.444 3.556 23.111 8.889 33.778 14.222 1.778 0 3.556 1.778 5.334 1.778 24.889 10.666 48 24.889 69.333 39.111 1.778 0 1.778 1.778 3.556 1.778 10.666 7.111 21.333 16 32 24.889 0 0 0 0 0 0l16 14.222-16 14.222c3.556 5.334 0 7.111-5.334 10.666zM739.557 146.132c0 0-1.778 0-1.778-1.778-10.666-5.334-19.556-12.444-30.222-17.778 0 0-1.778 0-1.778-1.778-10.666-5.334-21.333-10.666-30.222-14.222 0 0 0 0 0 0-10.666-3.556-19.556-7.111-30.222-10.666-1.778 0-5.334-1.778-7.111-1.778-8.889-3.556-17.778-5.334-28.444-8.889-3.556-1.778-7.111-1.778-10.666-1.778-7.111-1.778-12.444-3.556-19.556-3.556-7.111-1.778-14.222-1.778-21.333-3.556-5.334 0-10.666-1.778-17.778-1.778-5.334 0-10.666-1.778-16-1.778-7.111 0-14.222 0-21.333-1.778-1.778 0-5.334 0-7.111 0-3.556 0-7.111 0-10.666 0-5.334 0-10.666 0-16 0-7.111 0-12.444 0-19.556 1.778-7.111 0-14.222 1.778-21.333 1.778-3.556 0-7.111 1.778-10.666 1.778-10.666 1.778-19.556 3.556-28.444 5.334-1.778 0-3.556 1.778-7.111 1.778-23.111 5.334-44.445 12.444-65.777 21.333 0 0 0 0 0 0-33.778 14.222-64 32-94.222 55.111 0 0 0 0-1.778 0 0 0 0 0 0 0s1.778 0 1.778 1.778l140.444 76.445c24.889 12.444 39.111 39.111 39.111 65.777v64l-3.556 5.334c0 0-39.111 46.223-53.333 110.222v10.666l-5.334 3.556c-8.889 5.334-14.222 14.222-14.222 24.889v62.223c0 8.889 3.556 16 10.666 21.333l5.334 5.334v103.111c0 0-5.334 44.445 24.889 78.222 24.889 28.444 69.333 44.445 129.778 44.445s104.889-14.222 129.778-44.445c30.222-33.778 24.889-78.222 24.889-78.222v-101.334l5.334-5.334c7.111-5.334 10.666-14.222 10.666-21.333v-64c0-12.444-8.889-24.889-21.333-28.444l-8.889-3.556-3.556-8.889c-10.666-32-24.889-62.223-44.445-88.889-5.334-7.111-8.889-12.444-12.444-16l-3.556-5.334v-65.777c0-28.444 16-55.111 40.889-67.555l151.111-74.667c1.778 0 1.778-1.778 3.556-1.778-8.889-5.334-19.556-12.444-28.444-19.556z" />
<glyph unicode="&#xe915;" glyph-name="wallet" d="M93.866 539.306c-8.533 3.413-17.067 8.533-23.893 15.36s-17.067 5.12-23.893-1.707c-6.827-6.827-5.12-17.067 1.707-23.893 8.533-6.827 20.48-15.36 32.427-20.48 1.707-1.707 5.12-1.707 6.827-1.707 6.827 0 11.947 3.413 15.36 10.24 3.413 8.533 0 18.773-8.533 22.187zM494.932 530.773h-34.133c-10.24 0-17.067-6.827-17.067-17.067s6.827-17.067 17.067-17.067h34.133c10.24 0 17.067 6.827 17.067 17.067s-6.827 17.067-17.067 17.067zM290.132 530.773h-34.133c-10.24 0-17.067-6.827-17.067-17.067s6.827-17.067 17.067-17.067h34.133c10.24 0 17.067 6.827 17.067 17.067s-6.827 17.067-17.067 17.067zM699.732 530.773h-34.133c-10.24 0-17.067-6.827-17.067-17.067s6.827-17.067 17.067-17.067h34.133c10.24 0 17.067 6.827 17.067 17.067s-6.827 17.067-17.067 17.067zM904.532 530.773h-34.133c-10.24 0-17.067-6.827-17.067-17.067s6.827-17.067 17.067-17.067h34.133c10.24 0 17.067 6.827 17.067 17.067s-6.827 17.067-17.067 17.067zM597.332 530.773h-34.133c-10.24 0-17.067-6.827-17.067-17.067s6.827-17.067 17.067-17.067h34.133c10.24 0 17.067 6.827 17.067 17.067s-6.827 17.067-17.067 17.067zM187.732 530.773h-34.133c-10.24 0-17.067-6.827-17.067-17.067s6.827-17.067 17.067-17.067h34.133c10.24 0 17.067 6.827 17.067 17.067s-6.827 17.067-17.067 17.067zM802.132 530.773h-34.133c-10.24 0-17.067-6.827-17.067-17.067s6.827-17.067 17.067-17.067h34.133c10.24 0 17.067 6.827 17.067 17.067s-6.827 17.067-17.067 17.067zM392.532 530.773h-34.133c-10.24 0-17.067-6.827-17.067-17.067s6.827-17.067 17.067-17.067h34.133c10.24 0 17.067 6.827 17.067 17.067s-6.827 17.067-17.067 17.067zM93.866 27.306c-8.533 3.413-17.067 8.533-23.893 15.36s-17.067 5.12-23.893-1.707c-6.827-6.827-5.12-17.067 1.707-23.893 8.533-6.827 20.48-15.36 32.427-20.48 1.707-1.707 5.12-1.707 6.827-1.707 6.827 0 11.947 3.413 15.36 10.24 3.413 8.533 0 18.773-8.533 22.187zM648.532 1.706c0-10.24 6.827-17.067 17.067-17.067h34.133c10.24 0 17.067 6.827 17.067 17.067s-6.827 17.067-17.067 17.067h-34.133c-10.24 0-17.067-6.827-17.067-17.067zM767.999-15.36h34.133c10.24 0 17.067 6.827 17.067 17.067s-6.827 17.067-17.067 17.067h-34.133c-10.24 0-17.067-6.827-17.067-17.067s6.827-17.067 17.067-17.067zM597.332 18.773h-34.133c-10.24 0-17.067-6.827-17.067-17.067s6.827-17.067 17.067-17.067h34.133c10.24 0 17.067 6.827 17.067 17.067s-6.827 17.067-17.067 17.067zM187.732 18.773h-34.133c-10.24 0-17.067-6.827-17.067-17.067s6.827-17.067 17.067-17.067h34.133c10.24 0 17.067 6.827 17.067 17.067s-6.827 17.067-17.067 17.067zM290.132 18.773h-34.133c-10.24 0-17.067-6.827-17.067-17.067s6.827-17.067 17.067-17.067h34.133c10.24 0 17.067 6.827 17.067 17.067s-6.827 17.067-17.067 17.067zM392.532 18.773h-34.133c-10.24 0-17.067-6.827-17.067-17.067s6.827-17.067 17.067-17.067h34.133c10.24 0 17.067 6.827 17.067 17.067s-6.827 17.067-17.067 17.067zM494.932 18.773h-34.133c-10.24 0-17.067-6.827-17.067-17.067s6.827-17.067 17.067-17.067h34.133c10.24 0 17.067 6.827 17.067 17.067s-6.827 17.067-17.067 17.067zM870.399-15.36h34.133c10.24 0 17.067 6.827 17.067 17.067s-6.827 17.067-17.067 17.067h-34.133c-10.24 0-17.067-6.827-17.067-17.067s6.827-17.067 17.067-17.067zM750.932 274.773c0-37.547 30.72-68.267 68.267-68.267s68.267 30.72 68.267 68.267-30.72 68.267-68.267 68.267-68.267-30.72-68.267-68.267zM819.199 308.906c18.773 0 34.133-15.36 34.133-34.133s-15.36-34.133-34.133-34.133-34.133 15.36-34.133 34.133 15.36 34.133 34.133 34.133zM938.666 769.706h-34.133c-10.24 0-17.067-6.827-17.067-17.067s6.827-17.067 17.067-17.067h34.133c10.24 0 17.067 6.827 17.067 17.067s-6.827 17.067-17.067 17.067zM153.599 735.573h34.133c10.24 0 17.067 6.827 17.067 17.067s-6.827 17.067-17.067 17.067h-34.133c-10.24 0-17.067-6.827-17.067-17.067s6.827-17.067 17.067-17.067zM93.866 727.040c8.533 3.413 11.947 13.653 8.533 22.187s-13.653 11.947-22.187 8.533c-11.947-5.12-23.893-13.653-32.427-22.187-6.827-6.827-8.533-17.067-1.707-23.893 3.413-3.413 8.533-5.12 13.653-5.12 3.413 0 8.533 1.707 11.947 3.413 5.12 6.827 13.653 11.947 22.187 17.067zM255.999 735.573h34.133c10.24 0 17.067 6.827 17.067 17.067s-6.827 17.067-17.067 17.067h-34.133c-10.24 0-17.067-6.827-17.067-17.067s6.827-17.067 17.067-17.067zM732.159 837.973l-92.16 92.16c-6.827 6.827-20.48 6.827-27.307 0l-34.133-34.133-34.133 34.133c-3.413 3.413-8.533 5.12-13.653 5.12s-10.24-1.707-13.653-5.12l-93.867-92.16h-286.72c-75.093 0-136.533-61.44-136.533-136.533v-662.187c0-68.267 54.613-122.88 122.88-122.88h901.12v921.6h-291.84zM626.346 896l296.96-296.96h-92.16l-191.147 192.853c-6.827 6.827-18.773 6.827-25.6 0l-192.853-192.853h-92.16l296.96 296.96zM783.359 599.040h-314.027l157.013 157.013 157.013-157.013zM529.066 896l23.893-23.893-271.36-273.067h-49.493l296.96 296.96zM136.532 803.84h252.587l-35.84-35.84c-5.12-1.707-8.533-5.12-10.24-10.24l-158.72-158.72h-47.787c-56.32 0-102.4 46.080-102.4 102.4s46.080 102.4 102.4 102.4zM989.866 189.44h-187.733c-47.787 0-85.333 37.547-85.333 85.333s37.547 85.333 85.333 85.333h187.733v-170.667zM989.866 530.773h-17.067c-10.24 0-17.067-6.827-17.067-17.067s6.827-17.067 17.067-17.067h17.067v-102.4h-187.733c-66.56 0-119.467-52.907-119.467-119.467s52.907-119.467 119.467-119.467h187.733v-136.533h-17.067c-10.24 0-17.067-6.827-17.067-17.067s6.827-17.067 17.067-17.067h17.067v-34.133h-866.987c-49.493 0-88.747 39.253-88.747 88.747v37.547c3.413 3.413 5.12 10.24 3.413 17.067-1.707 8.533-3.413 17.067-3.413 27.307v467.627c3.413 3.413 5.12 10.24 3.413 17.067 0 1.707 0 1.707 0 3.413 1.707-1.707 3.413-3.413 5.12-5.12s3.413-3.413 5.12-3.413c1.707-1.707 3.413-3.413 5.12-5.12s3.413-1.707 5.12-3.413c1.707-1.707 3.413-3.413 6.827-3.413 1.707-1.707 3.413-1.707 5.12-3.413s5.12-1.707 6.827-3.413c1.707-1.707 3.413-1.707 5.12-3.413s5.12-1.707 6.827-3.413c1.707 0 3.413-1.707 5.12-1.707 3.413-1.707 5.12-1.707 8.533-1.707 1.707 0 3.413-1.707 5.12-1.707 3.413 0 6.827-1.707 10.24-1.707 1.707 0 3.413 0 5.12 0 5.12 0 10.24 0 15.36 0h851.627v-37.547zM971.092 599.040l-136.533 136.533h1.707c10.24 0 17.067 6.827 17.067 17.067s-6.827 17.067-17.067 17.067h-34.133c0 0 0 0 0 0l-34.133 34.133h221.867v-204.8h-18.773z" />
<glyph unicode="&#xe916;" glyph-name="privacysetting" horiz-adv-x="1049" d="M900.166 836.266c-249.173 0-360.107 128-361.813 129.707-3.413 5.12-8.533 6.827-13.653 6.827 0 0 0 0 0 0-5.12 0-10.24-1.707-13.653-6.827 0 0-112.64-129.707-361.813-129.707-10.24 0-17.067-6.827-17.067-17.067v-325.973c0-177.493 80.213-346.453 213.333-452.266 54.613-42.667 112.64-73.387 174.080-92.16 1.707 0 3.413 0 5.12 0s3.413 0 5.12 0c61.44 18.773 119.467 49.493 174.080 92.16 133.12 105.813 213.333 274.773 213.333 452.266v325.973c0 10.24-6.827 17.067-17.067 17.067zM883.099 493.226c0-167.253-75.093-327.68-201.387-424.96-49.493-39.253-102.4-66.56-157.013-83.627-54.613 17.067-107.52 46.080-157.013 83.627-126.293 98.987-201.387 257.707-201.387 424.96v308.907c208.213 5.12 322.56 93.867 358.4 128 35.84-34.133 150.187-124.587 358.4-128v-308.907zM514.459 836.266c-51.2-34.133-139.947-80.213-266.24-95.573-8.533-1.707-15.36-8.533-15.36-17.067v-230.4c0-146.773 64.853-286.72 175.787-372.053 34.133-27.307 71.68-47.787 109.227-63.147 1.707 0 3.413-1.707 6.827-1.707s3.413 0 6.827 1.707c37.547 15.36 75.093 35.84 109.227 63.147 109.227 85.333 175.787 225.28 175.787 372.053v230.4c0 8.533-6.827 15.36-15.36 17.067-126.293 15.36-213.333 61.44-266.24 95.573-6.827 3.413-13.653 3.413-20.48 0zM780.699 708.266v-215.040c0-136.533-59.733-266.24-162.133-344.747-30.72-23.893-61.44-42.667-93.867-56.32-32.427 13.653-64.853 32.427-93.867 56.32-102.4 80.213-162.133 208.213-162.133 344.747v215.040c117.76 17.067 203.093 58.027 256 93.867 52.907-35.84 138.24-76.8 256-93.867z" />
<glyph unicode="&#xe917;" glyph-name="follow" horiz-adv-x="1115" d="M874.496 254.259l57.754-58.163h-183.091v-33.587h182.272l-56.934-56.525 23.347-23.757 85.197 84.787 12.698 13.107-97.894 97.894zM872.448 420.147c-69.632 0-132.71-29.901-176.538-77.414-39.731-42.598-63.898-99.942-63.898-163.021 0-128.614 100.762-233.472 227.738-240.026h0.41c4.096-0.41 8.192-0.41 11.878-0.41 132.71 0 240.026 107.725 240.026 240.026s-106.906 240.845-239.616 240.845zM873.677-19.354h-1.229c-110.182 0-199.066 89.293-199.066 199.066 0 57.754 24.576 109.773 63.898 146.227 35.635 33.178 83.149 53.248 135.578 53.248 110.182 0 199.066-89.293 199.066-199.066-0.41-109.773-88.883-198.656-198.246-199.475zM873.677-19.763v0.819h-1.229c-110.182 0-199.066 89.293-199.066 199.066 0 57.754 24.576 109.773 63.898 146.227-12.288 6.144-26.214 11.469-40.96 16.794-36.045 12.698-79.462 23.347-131.482 32.768 0 0-38.093-48.333-126.566-48.333s-126.566 48.333-126.566 48.333c-266.65-48.333-303.923-124.109-308.838-387.072-0.41-21.299-0.41-22.528-0.819-20.070 0-4.506 0-13.517 0-28.262 0 0 64.307-2.458 436.224-2.458 283.853 0 388.301 1.638 421.888 2.048h0.41c10.24 0 13.926 0.41 13.926 0.41 0 9.83 0 16.384 0 20.89-0.41-1.638-0.41 1.638-0.819 18.842zM438.272 957.952c-197.018 0-231.014-125.747-231.014-280.576s103.219-280.576 231.014-280.576 231.014 125.747 231.014 280.576-33.997 280.576-231.014 280.576z" />
<glyph unicode="&#xe918;" glyph-name="bidchat" horiz-adv-x="4211" d="M439.186 660.373c-49.811 0-91.026-21.158-119.678-61.051-22.701 39.893-62.594 61.051-116.151 61.051-41.215 0-76.038-18.734-99.842-43.64v36.145h-103.588v-410.386h103.588v213.348c0 52.456 21.158 114.829 78.683 114.829 27.55 0 56.202-11.241 56.202-91.026v-237.151h103.588v213.348c0 52.456 21.158 114.829 78.683 114.829 39.893 0 57.304-27.55 57.304-91.026v-237.151h103.588v247.070c1.102 140.836-77.581 170.811-142.379 170.811zM1271.42 660.373c-121 0-208.279-88.601-208.279-212.026 0-128.494 82.43-214.671 205.855-214.671 72.292 0 134.665 22.481 175.88 62.373l9.918 8.816-46.064 64.798-9.918-6.171c-1.322-1.322-2.425-1.322-5.070-2.425-13.665-9.918-54.88-39.893-116.151-39.893-59.949 0-101.164 36.145-109.759 96.095h296.88v47.386c2.645 113.286-79.785 195.716-193.292 195.716zM1170.256 494.411c7.494 37.468 37.468 83.532 98.739 83.532 63.696 0 89.923-49.811 96.095-83.532h-194.834zM1685.553 326.025c-18.734 0-23.803 6.171-28.652 12.563-7.494 13.665-7.494 35.044-7.494 63.696v161.995h92.348v88.601h-92.348v114.829h-103.588v-114.829h-55.982v-88.601h56.202v-162.215c0-61.051 3.747-94.772 21.158-122.322 20.057-29.974 51.133-44.962 92.348-44.962 42.317 0 74.936 13.665 76.038 13.665l8.816 3.747-7.494 91.026c0 0.221-18.734-17.191-51.353-17.191zM2273.362 428.291l-62.373 71.189c-9.918-16.31-20.057-31.297-27.55-42.317l-88.601 103.588c68.544 42.317 103.588 91.026 103.588 145.906 0 78.683-61.051 130.918-152.297 130.918s-156.044-54.88-156.044-132.241c0-56.202 29.974-93.671 56.202-123.425-69.867-37.468-139.734-86.177-139.734-178.525 0-101.164 74.936-169.709 186.018-169.709 82.43 0 135.987 32.399 188.443 83.532l63.696-73.614h124.747l-124.747 144.803c8.816 11.241 18.734 24.905 28.652 39.893zM2047.452 754.043c20.057 0 54.88-6.171 54.88-48.709 0-38.79-39.893-64.798-67.443-81.108l-14.987 17.412c-12.563 13.665-27.55 35.044-27.55 59.949 0.221 31.077 21.379 52.456 55.1 52.456zM2003.812 320.955c-52.456 0-91.026 36.145-91.026 86.177 0 51.133 39.893 77.36 81.108 101.164l13.665 7.494 114.829-132.241c-22.481-27.55-66.12-62.594-118.575-62.594zM2685.512 612.987h-0.441c-23.803 22.481-62.373 47.386-123.425 47.386-129.816 0-198.361-103.588-198.361-205.855s68.544-205.855 198.361-205.855c48.709 0 91.026 16.31 122.322 47.386-2.425-52.456-20.057-77.36-26.228-84.855-11.241-13.665-37.468-37.468-94.772-37.468-54.88 0-111.082 29.974-128.494 44.962l-51.133-76.038c53.557-38.79 114.829-58.627 178.525-58.627 79.785 0 138.412 26.228 182.272 78.683 31.297 37.468 44.962 89.923 44.962 174.778v315.393h-103.588v-39.893zM2579.059 337.266c-66.12 0-108.658 46.064-108.658 117.253s42.317 118.575 108.658 118.575c64.798-1.322 108.658-47.386 108.658-118.575s-42.317-117.253-108.658-117.253zM2931.038 622.905v29.974h-103.588v-410.386h103.588v204.532c0 180.949 130.918 108.658 130.918 108.658v95.875c0 0-20.057 8.816-47.386 8.816-33.721 0-62.373-13.665-83.532-37.468zM829.737 660.373c-121 0-208.279-88.601-208.279-212.026 0-128.494 82.43-214.671 205.855-214.671 72.292 0 134.665 22.481 175.88 62.373l9.918 8.816-46.064 64.798-9.918-6.171c-1.322-1.322-2.425-1.322-5.070-2.425-13.665-9.918-54.88-39.893-116.151-39.893-59.949 0-101.164 36.145-109.759 96.095h296.88v47.386c1.322 113.286-81.108 195.716-193.292 195.716zM728.572 494.411c7.494 37.468 36.145 83.532 98.519 83.532 63.696 0 89.923-49.811 96.095-83.532h-194.614zM3738.147 660.373c-121 0-208.279-88.601-208.279-212.026 0-128.494 82.43-214.671 205.855-214.671 72.292 0 134.665 22.481 175.88 62.373l9.918 8.816-46.064 64.798-9.918-6.171c-1.322-1.322-2.425-1.322-5.070-2.425-13.665-9.918-54.88-39.893-116.151-39.893-59.949 0-101.164 36.145-109.759 96.095h296.88v47.386c2.645 113.286-79.565 195.716-193.292 195.716zM3637.203 494.411c7.494 37.468 37.468 83.532 98.519 83.532 63.696 0 89.923-49.811 96.095-83.532h-194.614zM4203.633 343.216l-17.412-9.698c0 0-14.987-7.494-33.721-7.494s-23.803 6.171-28.652 12.563c-7.494 13.665-7.494 35.044-7.494 63.696v161.995h92.348v88.601h-92.348v114.829h-103.588v-114.829h-56.202v-88.601h56.202v-162.215c0-61.051 3.747-94.772 21.158-122.322 20.057-29.974 51.133-44.962 92.348-44.962 42.317 0 74.936 13.665 76.038 13.665l8.816 3.747-7.494 91.026zM3296.463 660.373c-121 0-208.279-88.601-208.279-212.026 0-128.494 82.43-214.671 205.855-214.671 72.292 0 134.665 22.481 175.88 62.373l9.918 8.816-46.064 64.798-9.918-6.171c-1.322-1.322-2.425-1.322-5.070-2.425-13.665-9.918-54.88-39.893-116.151-39.893-59.949 0-101.164 36.145-109.759 96.095h296.88v47.386c1.322 113.286-80.887 195.716-193.292 195.716zM3195.52 494.411c6.171 37.468 36.145 83.532 98.519 83.532 63.696 0 89.923-49.811 96.095-83.532h-194.614z" />
<glyph unicode="&#xe919;" glyph-name="instagram" d="M718.945 960h-413.89c-168.208 0-305.055-136.847-305.055-305.055v-413.89c0-168.208 136.847-305.055 305.055-305.055h413.89c168.208 0 305.055 136.847 305.055 305.055v413.89c-0.002 168.208-136.849 305.055-305.055 305.055zM920.986 241.055c0-111.583-90.458-202.041-202.041-202.041h-413.89c-111.583 0-202.041 90.458-202.041 202.041v413.89c0 111.585 90.458 202.041 202.041 202.041h413.89c111.583 0 202.041-90.456 202.041-202.041v-413.89zM512 712.843c-146.035 0-264.843-118.808-264.843-264.841s118.808-264.843 264.843-264.843 264.843 118.808 264.843 264.843-118.808 264.841-264.843 264.841zM512 286.172c-89.376 0-161.828 72.452-161.828 161.828s72.454 161.828 161.828 161.828c89.376 0 161.828-72.452 161.828-161.828 0-89.374-72.454-161.828-161.828-161.828zM840.808 710.851c0-35.048-28.412-63.46-63.46-63.46s-63.46 28.412-63.46 63.46c0 35.048 28.412 63.46 63.46 63.46s63.46-28.412 63.46-63.46z" />
<glyph unicode="&#xe91a;" glyph-name="following" horiz-adv-x="1115" d="M870.81 254.259l-23.757 23.757-97.894-97.894 97.894-97.894 23.757 23.757-56.934 56.525h181.862v33.587h-183.091zM872.448 420.147c-69.632 0-132.71-29.901-176.538-77.414-36.045 12.698-79.462 23.347-131.482 32.768 0 0-38.093-48.333-126.566-48.333s-126.566 48.333-126.566 48.333c-266.24-47.923-303.514-123.699-308.429-386.662-0.41-21.299-0.41-22.528-0.819-20.070 0-4.506 0-13.517 0-28.262 0 0 64.307-2.458 436.224-2.458 283.853 0 388.301 1.638 421.888 2.048h0.41c4.096-0.41 8.192-0.41 11.878-0.41 132.71 0 240.026 107.725 240.026 240.026s-107.315 240.435-240.026 240.435zM873.677-19.354h-1.229c-110.182 0-199.066 89.293-199.066 199.066 0 57.754 24.576 109.773 63.898 146.227 35.635 33.178 83.149 53.248 135.578 53.248 109.773 0 199.066-89.293 199.066-199.066-0.41-109.773-88.883-198.656-198.246-199.475zM438.272 397.21c127.386 0 231.014 125.747 231.014 280.576s-33.997 280.166-231.014 280.166c-197.018 0-231.014-125.747-231.014-280.576s103.219-280.166 231.014-280.166z" />
<glyph unicode="&#xe91b;" glyph-name="googleplus" d="M951.707 472.615h-138.369v138.332c0 10.555-8.565 19.138-19.101 19.138h-39.4c-10.61 0-19.175-8.584-19.175-19.138v-138.332h-138.369c-10.537 0-19.138-8.602-19.138-19.175v-39.4c0-10.573 8.602-19.138 19.138-19.138h138.369v-138.405c0-10.573 8.565-19.138 19.175-19.138h39.4c10.537 0 19.101 8.565 19.101 19.138v138.424h138.369c10.537 0 19.138 8.565 19.138 19.138v39.4c0 10.573-8.602 19.157-19.138 19.157zM486.719 351.303c-29.103 20.612-55.554 50.839-56.014 60.122 0 16.909 1.51 24.995 39.436 54.541 49.034 38.387 76.037 88.857 76.037 142.182 0 48.351-14.773 91.306-39.916 121.478h19.507c4.034 0 7.994 1.252 11.218 3.61l54.43 39.436c6.76 4.844 9.596 13.484 7.018 21.385-2.597 7.884-9.891 13.262-18.198 13.262h-243.435c-26.635 0-53.693-4.697-80.255-13.834-88.71-30.595-150.747-106.19-150.747-183.792 0-109.947 85.173-193.279 199.025-195.893-2.229-8.712-3.352-17.296-3.352-25.714 0-16.946 4.291-32.989 13.133-48.499-1.031 0-2.026 0-3.132 0-108.529 0-206.485-53.252-243.675-132.493-9.689-20.612-14.625-41.444-14.625-62.019 0-20.004 5.139-39.253 15.214-57.341 23.375-41.813 73.568-74.25 141.408-91.381 35.016-8.842 72.647-13.354 111.715-13.354 35.108 0 68.577 4.531 99.522 13.484 96.483 28.017 158.87 99.042 158.87 181.029-0.018 78.671-25.308 125.77-93.186 173.79zM179.276 171.213c0 57.23 72.702 107.424 155.573 107.424h2.229c18.033-0.221 35.623-2.874 52.201-7.957 5.691-3.923 11.181-7.663 16.449-11.254 38.387-26.156 63.75-43.416 70.805-71.118 1.658-6.982 2.486-13.962 2.486-20.722 0-71.266-53.14-107.387-158.005-107.387-79.481 0-141.74 48.739-141.74 111.016zM254.686 711.961c12.949 14.791 29.914 22.601 48.959 22.601l2.155-0.037c53.804-1.584 105.288-61.54 114.754-133.653 5.323-40.376-3.665-78.34-23.964-101.475-12.986-14.828-29.711-22.637-49.53-22.637 0 0 0 0-0.037 0h-0.866c-52.699 1.62-105.288 63.862-114.699 135.882-5.287 40.266 3.187 76.46 23.227 99.319z" />
<glyph unicode="&#xe91c;" glyph-name="twitter" d="M900.891 713.418c16.902 4.65 33.271 10.503 48.967 17.418 3.062 1.731 6.962 1.722 10.085-0.362 4.42-2.946 5.614-8.924 2.668-13.344-12.436-18.661-26.585-36.2-42.236-52.407-14.412-14.928-30.084-28.677-46.865-41.093l0.412-17.68c0.037-0.347 0.059-0.7 0.059-1.054 0-131.923-54.261-274.769-157.74-378.236-88.199-88.181-212.037-147.806-368.381-147.806-51.26 0-100.821 7.371-147.747 21.111-48.365 14.159-93.816 35.060-135.344 61.595-3.315 1.821-5.381 5.512-4.941 9.501 0.584 5.284 5.343 9.088 10.625 8.504l-0.003-0.019c7.053-0.783 14.037-1.372 20.971-1.764 6.749-0.38 13.797-0.575 21.198-0.575 40.71 0 79.826 6.789 116.256 19.309 29.654 10.19 57.518 24.153 82.998 41.315-31.251 4.93-59.984 17.377-84.279 35.449-31.447 23.382-55.469 56.178-67.911 94.246-0.705 1.68-0.941 3.577-0.576 5.496 0.987 5.223 6.020 8.654 11.237 7.672l-0.005-0.024c5.454-1.030 10.821-1.782 16.126-2.275 5.159-0.478 10.62-0.713 16.4-0.713 1.91 0 3.801 0.027 5.677 0.083-27.308 12.29-51.24 30.801-69.96 53.727-26.946 33-43.134 75.124-43.134 120.984v2.167c-0.011 1.591 0.376 3.204 1.196 4.691 2.563 4.652 8.422 6.344 13.073 3.778l-0.008-0.016c11.973-6.6 24.705-11.896 38.025-15.575 2.389-0.662 4.802-1.268 7.228-1.822-14.17 13.728-26.233 29.657-35.646 47.238-14.383 26.879-22.556 57.564-22.556 90.029 0 17.233 2.285 33.996 6.589 49.965 4.33 16.071 10.735 31.348 18.941 45.482 0.592 1.268 1.474 2.425 2.633 3.372 4.118 3.358 10.176 2.746 13.54-1.372l-7.453-6.081 7.443 6.052c44.736-54.84 100.615-100.092 164.22-132.315 58.103-29.437 122.63-48.001 190.971-53.077-0.475 2.94-0.884 5.888-1.222 8.84-0.839 7.315-1.279 14.7-1.279 22.151 0 52.761 21.411 100.55 56.009 135.147s82.387 56.009 135.147 56.009c26.848 0 52.543-5.618 75.887-15.715 22.54-9.754 42.801-23.663 59.714-40.709 18.206 3.817 35.887 9.041 52.948 15.537 18.858 7.183 36.907 15.917 54.031 26.026 2.371 1.596 5.421 2.13 8.353 1.176 5.052-1.639 7.822-7.065 6.187-12.118l-0.027 0.011c-7.222-22.28-18.315-42.752-32.501-60.595-5.838-7.348-12.211-14.253-19.060-20.664 4.396 1.029 8.749 2.138 13.063 3.323z" />
<glyph unicode="&#xe91d;" glyph-name="facebook" horiz-adv-x="1050" d="M602.375 12.104h-195.952v462.113h-97.963v159.14h97.963v95.6c0 129.917 55.296 207.189 212.309 207.189h130.783v-159.298h-81.657c-61.177 0-65.221-22.265-65.221-63.777l-0.263-79.714h148.112l-17.329-159.245h-130.783v-462.113z" />
<glyph unicode="&#xe91e;" glyph-name="eye" d="M1016.987 452.91l-129.754 129.754c-208.658 208.658-547.069 208.658-755.727 0l-126.247-126.247c-3.507-3.507-5.26-7.014-5.26-12.274s1.754-8.767 5.26-12.274l129.754-129.754c103.452-105.206 240.219-157.808 376.986-157.808s273.534 52.603 378.74 156.055l126.247 126.247c7.014 8.767 7.014 19.287 0 26.301zM866.193 324.909c-194.63-194.63-512-194.63-706.63 0l-117.479 117.479 113.973 113.973c194.63 196.384 512 196.384 706.63 1.754l117.479-117.479-113.973-115.726zM492.713 582.663c-68.384 0-122.74-54.356-122.74-122.74 0-10.521 7.014-17.534 17.534-17.534s17.534 7.014 17.534 17.534c0 49.096 38.575 87.671 87.671 87.671 10.521 0 17.534 7.014 17.534 17.534s-7.014 17.534-17.534 17.534zM510.247 670.334c-126.247 0-227.945-101.698-227.945-227.945s101.698-227.945 227.945-227.945c126.247 0 227.945 101.698 227.945 227.945s-101.698 227.945-227.945 227.945zM510.247 249.512c-106.959 0-192.877 85.918-192.877 192.877s85.918 192.877 192.877 192.877 192.877-85.918 192.877-192.877-85.918-192.877-192.877-192.877z" />
<glyph unicode="&#xe91f;" glyph-name="favoriteOutline" horiz-adv-x="1059" d="M945.087 792.182c-60.974 68.997-133.18 104.297-210.2 104.297-85.042 0-160.458-51.346-205.386-136.39-44.928 85.042-120.343 136.39-203.782 136.39-75.415 0-146.017-35.301-210.2-104.297-73.81-80.229-115.53-264.755 28.882-402.749 67.392-64.183 370.658-381.89 373.867-385.099s6.418-4.814 11.232-4.814c0 0 0 0 0 0 4.814 0 8.023 1.605 11.232 4.814s306.474 320.915 373.867 385.099c144.412 139.599 102.693 322.52 30.487 402.749zM893.74 413.501c-59.369-57.765-306.474-316.102-364.239-375.472-57.765 59.369-301.66 317.706-362.635 375.472-129.971 123.553-93.065 285.615-27.278 357.821 56.16 62.578 118.739 93.065 186.131 93.065 80.229 0 152.435-57.765 189.34-149.226 1.605-6.418 8.023-9.627 14.441-9.627s12.837 4.814 14.441 9.627c36.905 91.461 109.111 149.226 190.945 149.226 67.392 0 129.971-32.091 186.131-93.065 64.183-70.601 99.483-234.268-27.278-357.821z" />
<glyph unicode="&#xe920;" glyph-name="totalUsers" horiz-adv-x="1030" d="M944.315 184.073l-164.527 82.263c-15.425 8.569-25.707 23.994-25.707 41.131v58.271c3.429 5.14 8.569 10.283 11.998 17.138 20.565 30.849 37.702 63.411 51.415 99.4 23.994 10.283 39.417 34.277 39.417 61.696v68.554c0 17.138-6.854 32.562-17.138 44.558v90.833c1.714 8.569 5.14 65.125-35.991 111.398-32.562 39.417-90.833 59.985-167.953 59.985s-135.392-20.565-169.668-59.985c-23.994-29.137-32.562-59.985-35.991-82.263-29.137 15.425-63.411 22.279-102.829 22.279-178.237 0-188.52-152.529-188.52-154.244v-78.835c-10.283-11.998-17.138-25.707-17.138-39.417v-59.985c0-18.852 8.569-35.991 22.279-47.987 13.712-53.127 49.702-94.259 61.696-107.971v-46.273c0-13.712-6.854-25.707-20.565-32.562l-114.827-71.979c-42.844-23.994-70.268-70.268-70.268-119.967v-63.411h1028.291v68.554c1.714 59.985-30.849 113.112-83.975 138.819zM241.653 48.682v-37.702h-205.66v30.849c0 37.702 20.565 71.979 53.127 89.119l114.827 71.979c22.279 11.998 37.702 35.991 37.702 61.696v61.696l-5.14 5.14c0 0-46.273 42.844-59.985 102.829l-1.714 6.854-5.14 3.429c-8.569 5.14-13.712 13.712-13.712 22.279v59.985c0 6.854 3.429 13.712 11.998 20.565l5.14 5.14v92.547c0 5.14 8.569 121.681 154.244 121.681 41.131 0 75.408-10.283 102.829-27.419v-80.55c-10.283-11.998-17.138-29.137-17.138-44.558v-68.554c0-5.14 0-10.283 1.714-15.425 0-1.714 1.714-5.14 1.714-6.854s1.714-5.14 1.714-6.854c1.714-3.429 3.429-5.14 5.14-8.569 1.714-1.714 1.714-3.429 3.429-5.14 3.429-3.429 6.854-6.854 10.283-10.283 0 0 0 0 0 0s0 0 0-1.714c1.714-3.429 1.714-8.569 3.429-11.998l1.714-5.14c0 0 0-1.714 0-3.429s1.714-3.429 1.714-5.14 1.714-6.854 3.429-10.283c0-1.714 1.714-3.429 1.714-3.429 1.714-3.429 3.429-6.854 5.14-10.283 0 0 0-1.714 1.714-1.714l1.714-1.714c0-1.714 0-1.714 1.714-3.429 1.714-3.429 3.429-8.569 5.14-11.998 0 0 0 0 0-1.714s1.714-3.429 1.714-3.429c1.714-5.14 5.14-8.569 6.854-13.712 0-1.714 1.714-1.714 1.714-1.714 3.429-5.14 5.14-10.283 8.569-13.712 0 0 0 0 0 0 3.429-6.854 8.569-11.998 10.283-15.425 0-1.714 1.714-1.714 1.714-3.429 0 0 1.714-1.714 1.714-1.714v-56.556c0-17.138-8.569-32.562-23.994-39.417l-42.844-27.419h-8.569l-3.429-6.854-95.973-53.127c-49.702-25.707-80.55-78.835-80.55-135.392zM995.728 10.979h-719.803v37.702c0 10.283 1.714 22.279 5.14 32.562 8.569 30.849 29.137 58.271 58.271 73.694l152.529 83.975c25.707 13.712 41.131 41.131 41.131 70.268v68.554l-3.429 5.14c0 0 0 0-1.714 1.714 0 0 0 1.714-1.714 1.714 0 0 0 0 0 1.714s-1.714 1.714-3.429 3.429c0 0 0 0 0 0-1.714 3.429-5.14 8.569-8.569 13.712 0 0-1.714 1.714-1.714 1.714-1.714 1.714-1.714 3.429-3.429 5.14 0 1.714-1.714 1.714-1.714 3.429-1.714 1.714-1.714 3.429-3.429 6.854 0 1.714-1.714 1.714-1.714 3.429-1.714 3.429-3.429 6.854-5.14 10.283 0 1.714-1.714 1.714-1.714 3.429-1.714 3.429-3.429 6.854-5.14 10.283 0 1.714-1.714 3.429-1.714 3.429 0 1.714-1.714 3.429-1.714 5.14s-1.714 3.429-1.714 5.14c0 1.714-1.714 3.429-1.714 5.14 0 0 0 0 0 0-1.714 5.14-3.429 8.569-5.14 13.712 0 1.714 0 1.714 0 3.429v1.714c-1.714 5.14-3.429 10.283-5.14 17.138l-1.714 6.854-5.14 3.429c-10.283 6.854-15.425 17.138-15.425 29.137v68.554c0 10.283 3.429 18.852 11.998 25.707l5.14 5.14v111.398c0 11.998 0 49.702 27.419 82.263 25.707 30.849 73.694 47.987 140.531 47.987s114.827-17.138 143.961-47.987c32.562-37.702 27.419-85.691 27.419-85.691v-109.683l5.14-5.14c6.854-6.854 11.998-15.425 11.998-25.707v-68.554c0-15.425-10.283-27.419-23.994-32.562l-8.569-3.429-3.429-8.569c-11.998-35.991-27.419-68.554-47.987-97.687-5.14-6.854-10.283-13.712-13.712-18.852l-5.14-3.429v-70.268c0-30.849 17.138-58.271 44.558-71.979l164.527-82.263c41.131-20.565 66.839-61.696 66.839-107.971v-34.277z" />
<glyph unicode="&#xe921;" glyph-name="email" horiz-adv-x="1144" d="M1113.495 857.937c0 0 0 0 0 0-1.907 1.907-1.907 1.907-3.813 3.813-3.813 1.907-5.72 5.72-9.533 7.626-1.907 1.907-5.72 1.907-7.626 3.813-3.813 1.907-5.72 3.813-9.533 5.72s-7.626 1.907-11.44 3.813c-1.907 0-5.72 1.907-7.626 1.907-5.72 1.907-11.44 1.907-19.067 1.907h-945.714c-5.72 0-13.347 0-19.067-1.907-3.813 0-5.72-1.907-9.533-1.907-1.907-1.907-5.72-1.907-9.533-3.813s-5.72-3.813-9.533-5.72c-1.907 0-3.813-1.907-7.626-3.813s-7.626-5.72-9.533-7.626c-1.907-1.907-3.813-1.907-3.813-3.813 0 0 0 0 0 0-19.067-17.16-30.507-41.947-30.507-70.547v-678.779c0-28.6 11.44-53.387 30.507-72.454 0 0 0 0 0 0s1.907-1.907 1.907-1.907c5.72-3.813 9.533-5.72 13.347-9.533 1.907 0 3.813-1.907 3.813-1.907 3.813-1.907 7.626-3.813 11.44-5.72 1.907-1.907 5.72-1.907 7.626-1.907 3.813-1.907 5.72-1.907 9.533-3.813 7.626-1.907 15.254-1.907 20.974-1.907h945.714c5.72 0 13.347 0 19.067 1.907 3.813 0 5.72 1.907 9.533 1.907 1.907 0 5.72 1.907 7.626 1.907 3.813 1.907 7.626 3.813 11.44 5.72 1.907 0 3.813 1.907 5.72 1.907 3.813 1.907 7.626 5.72 11.44 9.533 0 0 1.907 1.907 3.813 1.907 0 0 0 0 0 0 19.067 17.16 30.507 43.854 30.507 72.454v680.685c0 28.6-11.44 53.387-30.507 70.547zM686.398 432.746l411.843 383.243c3.813-9.533 7.626-19.067 7.626-28.6v-678.779c0-11.44-3.813-20.974-9.533-30.507l-409.937 354.643zM1044.855 848.403c3.813 0 9.533 0 13.347-1.907 1.907 0 1.907 0 3.813 0 3.813 0 5.72-1.907 9.533-3.813 0 0 0 0 0 0l-442.35-411.843c-11.44-11.44-26.693-19.067-41.947-20.974-24.787-3.813-51.48 1.907-72.454 20.974l-440.443 411.843c0 0 0 0 0 0 1.907 1.907 5.72 1.907 9.533 3.813 0 0 1.907 0 1.907 0 3.813 1.907 9.533 1.907 13.347 1.907h945.714zM47.66 78.104c-5.72 9.533-9.533 19.067-9.533 30.507v678.779c0 11.44 3.813 20.974 7.626 28.6l411.843-383.243-409.937-354.643zM99.141 47.597c-3.813 0-7.626 0-11.44 1.907-3.813 0-7.626 1.907-11.44 3.813l409.937 354.643 1.907-1.907c5.72-5.72 11.44-9.533 19.067-13.347 45.76-28.6 106.774-22.88 146.815 13.347l1.907 1.907 411.843-356.549c-3.813-1.907-7.626-1.907-11.44-3.813-3.813 0-7.626 0-11.44 0h-945.714z" />
<glyph unicode="&#xe922;" glyph-name="backfull" d="M995.392 480h-890.496l266.4 265.376c12.512 12.512 12.512 32.768 0 45.248-12.512 12.512-32.768 12.512-45.248 0l-316.8-316.768c-12.32-12.32-12.32-32.928 0-45.248l316.8-316.8c12.512-12.512 32.768-12.512 45.248 0 12.512 12.512 12.512 32.768 0 45.248l-266.4 258.944h890.496c17.664 0 32 14.336 32 32s-14.336 32-32 32z" />
<glyph unicode="&#xe923;" glyph-name="suggested" horiz-adv-x="1330" d="M438.272 397.21c127.386 0 231.014 125.747 231.014 280.576s-33.997 280.576-231.014 280.576c-197.018-0.41-231.014-126.157-231.014-280.986s103.219-280.166 231.014-280.166zM873.677-19.763c-4.096 269.926-39.731 346.522-309.248 395.264 0 0-38.093-48.333-126.566-48.333s-126.566 48.333-126.566 48.333c-266.24-47.923-303.514-123.699-308.429-386.662-0.41-21.299-0.41-22.528-0.819-20.070 0-4.506 0-13.517 0-28.262 0 0 64.307-2.458 436.224-2.458s436.224 2.458 436.224 2.458c0 9.83 0 16.384 0 20.89-0.41-1.638-0.41 1.638-0.819 18.842zM1159.168 563.507v168.346h-159.744v-168.346h-168.346v-159.744h168.346v-168.346h159.744v168.346h168.346v159.744z" />
<glyph unicode="&#xe924;" glyph-name="search" d="M997.916-31.155l-285.947 299.472c73.419 73.419 117.857 173.887 117.857 285.947 0 224.121-181.615 405.736-405.736 405.736s-405.736-181.615-405.736-405.736c0-224.121 181.615-405.736 405.736-405.736 98.536 0 187.411 34.777 258.898 92.74l287.879-299.472c3.864-3.864 9.66-5.796 13.525-5.796s9.66 1.932 13.525 5.796c7.728 7.728 7.728 19.321 0 27.049zM56.996 554.264c0 202.868 164.226 367.094 367.094 367.094s367.094-164.226 367.094-367.094-164.226-367.094-367.094-367.094-367.094 164.226-367.094 367.094z" />
<glyph unicode="&#xe925;" glyph-name="art" horiz-adv-x="1303" d="M1303.273 833.164c0 37.236-13.964 74.473-41.891 102.4-27.927 23.273-65.164 37.236-102.4 37.236s-74.473-13.964-102.4-41.891l-521.309-507.345c-4.655 0-9.309 0-13.964 0-55.855 0-111.709-23.273-153.6-60.509-60.509-60.509-139.636-88.436-223.418-88.436-27.927 0-55.855 4.655-83.782 9.309l-60.509 13.964 18.618-65.164c18.618-65.164 51.2-125.673 102.4-172.218 74.473-74.473 172.218-111.709 279.273-111.709 0 0 0 0 0 0 107.055 0 204.8 41.891 279.273 111.709 46.545 46.545 65.164 102.4 65.164 162.909l516.655 507.345c27.927 27.927 41.891 60.509 41.891 102.4zM623.709 116.364c-60.509-60.509-139.636-88.436-223.418-88.436s-162.909 32.582-223.418 88.436c-23.273 23.273-41.891 51.2-60.509 79.127 9.309 0 18.618 0 32.582 0 107.055 0 204.8 41.891 279.273 111.709 27.927 23.273 60.509 41.891 97.745 41.891s69.818-13.964 97.745-41.891c55.855-51.2 55.855-139.636 0-190.836zM679.564 363.055c-13.964 13.964-32.582 27.927-55.855 37.236l158.255 158.255 93.091-93.091-158.255-158.255c-9.309 23.273-23.273 41.891-37.236 55.855zM1205.527 786.618l-269.964-265.309-93.091 93.091 269.964 265.309c13.964 13.964 27.927 18.618 46.545 18.618s32.582-4.655 46.545-18.618c13.964-13.964 18.618-27.927 18.618-46.545s-4.655-37.236-18.618-46.545z" />
<glyph unicode="&#xe926;" glyph-name="comedy" horiz-adv-x="987" d="M947.2 640c-87.771 47.543-179.2 73.143-274.286 76.8 3.657 36.571 3.657 73.143 3.657 113.371v0c0 25.6-14.629 51.2-40.229 65.829-91.429 51.2-193.829 76.8-296.229 76.8s-204.8-25.6-299.886-76.8c-25.6-14.629-40.229-36.571-40.229-65.829v0c0-164.571 25.6-296.229 84.114-398.629 54.857-102.4 135.314-175.543 248.686-226.743 3.657 0 3.657 0 7.314 0s3.657 0 7.314 0c7.314 3.657 18.286 7.314 25.6 10.971 7.314-14.629 14.629-29.257 21.943-40.229 54.857-102.4 135.314-175.543 252.343-226.743 3.657 0 3.657 0 7.314 0s3.657 0 7.314 0c113.371 51.2 193.829 124.343 248.686 226.743s84.114 234.057 84.114 398.629v0c-7.314 29.257-21.943 51.2-47.543 65.829zM340.114 237.714c-102.4 47.543-179.2 117.029-230.4 208.457-54.857 98.743-80.457 226.743-80.457 384v0c0 14.629 7.314 29.257 21.943 36.571 91.429 47.543 186.514 73.143 285.257 73.143s193.829-25.6 285.257-73.143c14.629-7.314 21.943-21.943 21.943-36.571v0c0-40.229 0-76.8-3.657-113.371-10.971 0-21.943 0-32.914 0 0 3.657 0 10.971 0 14.629 0 7.314-7.314 18.286-14.629 18.286s-14.629-7.314-18.286-14.629c0-7.314 0-14.629-3.657-21.943-14.629 0-29.257-3.657-43.886-7.314 0 0 0 3.657 0 3.657 3.657 7.314 0 18.286-7.314 21.943s-18.286 0-18.286-7.314c-3.657-7.314-7.314-14.629-10.971-21.943 0 0-3.657-3.657-3.657-3.657-14.629-3.657-29.257-7.314-40.229-10.971 0 0 0 0-3.657 0-18.286 3.657-29.257 18.286-36.571 36.571-3.657 7.314-10.971 10.971-18.286 7.314s-10.971-10.971-7.314-21.943c7.314-14.629 14.629-29.257 29.257-40.229-21.943-7.314-43.886-18.286-65.829-29.257v0c-25.6-14.629-40.229-36.571-40.229-65.829v0c0-7.314 0-14.629 0-21.943-29.257-7.314-58.514-21.943-84.114-40.229-25.6-25.6-40.229-54.857-40.229-84.114 0 0 0 0 0 0 0-3.657 3.657-10.971 7.314-10.971s7.314-3.657 7.314-3.657c3.657 0 3.657 0 7.314 0 36.571 18.286 73.143 25.6 109.714 29.257 7.314-73.143 21.943-138.971 43.886-197.486-3.657 0-7.314-3.657-14.629-7.314zM310.857 475.429c-29.257-3.657-58.514-10.971-91.429-21.943 14.629 29.257 47.543 58.514 87.771 65.829 3.657-14.629 3.657-29.257 3.657-43.886zM954.514 574.171c0-157.257-25.6-281.6-80.457-384-51.2-95.086-124.343-164.571-230.4-212.114-102.4 47.543-179.2 117.029-230.4 208.457-51.2 98.743-76.8 223.086-76.8 384v0c0 14.629 7.314 29.257 21.943 36.571v0c91.429 47.543 186.514 73.143 285.257 73.143s193.829-25.6 285.257-73.143c18.286-3.657 25.6-18.286 25.6-32.914v0 0zM808.229 332.8c-3.657 3.657-10.971 3.657-14.629 0-40.229-29.257-91.429-43.886-146.286-43.886s-106.057 14.629-146.286 43.886c-3.657 3.657-10.971 3.657-14.629 0s-7.314-7.314-7.314-14.629c0 0 0 0 0 0 0-102.4 73.143-223.086 168.229-223.086s168.229 120.686 168.229 223.086c0 0 0 0 0 0 0 3.657 0 10.971-7.314 14.629zM647.314 124.343c-69.486 0-124.343 84.114-135.314 160.914 40.229-21.943 87.771-32.914 135.314-32.914s95.086 10.971 135.314 32.914c-10.971-76.8-65.829-160.914-135.314-160.914zM526.629 460.8c21.943 0 40.229-14.629 47.543-36.571 3.657-7.314 7.314-10.971 14.629-10.971 3.657 0 3.657 0 7.314 0 7.314 3.657 10.971 10.971 7.314 21.943-14.629 36.571-43.886 58.514-76.8 58.514s-62.171-21.943-76.8-58.514c-3.657-7.314 0-18.286 7.314-21.943s18.286 0 18.286 7.314c10.971 25.6 29.257 40.229 51.2 40.229zM771.657 493.714c-32.914 0-62.171-21.943-76.8-58.514-3.657-7.314 0-18.286 7.314-21.943s18.286 0 18.286 7.314c7.314 21.943 29.257 36.571 47.543 36.571 21.943 0 40.229-14.629 47.543-36.571 3.657-7.314 7.314-10.971 14.629-10.971 3.657 0 3.657 0 7.314 0 7.314 3.657 10.971 10.971 7.314 21.943-10.971 40.229-40.229 62.171-73.143 62.171zM910.629 585.143c0 0 0 0 0 0-7.314 0-14.629-7.314-14.629-14.629 0-10.971 0-18.286 0-29.257 0-7.314 7.314-14.629 14.629-14.629 0 0 0 0 0 0 7.314 0 14.629 7.314 14.629 14.629 0 10.971 0 18.286 0 29.257 0 7.314-7.314 14.629-14.629 14.629zM906.971 493.714c-7.314 0-14.629-7.314-18.286-14.629-3.657-58.514-14.629-109.714-29.257-157.257-3.657-7.314 3.657-18.286 10.971-18.286 0 0 3.657 0 3.657 0 7.314 0 10.971 3.657 14.629 10.971 14.629 47.543 25.6 102.4 29.257 164.571 3.657 3.657-3.657 14.629-10.971 14.629zM292.571 709.486c3.657 7.314 0 18.286-7.314 21.943s-18.286 0-18.286-7.314c-7.314-21.943-29.257-36.571-47.543-36.571s-40.229 14.629-47.543 36.571c-7.314 7.314-14.629 10.971-21.943 7.314-10.971-3.657-14.629-10.971-10.971-21.943 14.629-36.571 43.886-58.514 76.8-58.514s65.829 25.6 76.8 58.514zM599.771 782.629c0 0 0 0 0 0 7.314 0 14.629 7.314 14.629 14.629 0 10.971 0 18.286 0 29.257 0 7.314-7.314 14.629-14.629 14.629 0 0 0 0 0 0-7.314 0-14.629-7.314-14.629-14.629 0-10.971 0-18.286 0-29.257 0-7.314 7.314-14.629 14.629-14.629z" />
<glyph unicode="&#xe927;" glyph-name="food" horiz-adv-x="1237" d="M891.733 571.733c4.267-4.267 8.533-8.533 17.067-8.533 4.267 0 8.533 0 12.8 4.267 8.533 4.267 12.8 17.067 4.267 29.867 0 0-64 102.4-8.533 170.667 29.867 38.4 34.133 85.333 17.067 136.533-12.8 38.4-34.133 64-38.4 64-8.533 8.533-21.333 8.533-29.867 4.267-8.533-8.533-8.533-21.333-4.267-29.867 0 0 72.533-85.333 21.333-149.333-72.533-98.133 4.267-217.6 8.533-221.867zM1028.267 571.733c4.267-4.267 8.533-8.533 17.067-8.533 4.267 0 8.533 0 12.8 4.267 8.533 4.267 12.8 17.067 4.267 29.867 0 0-64 102.4-8.533 170.667 29.867 38.4 34.133 85.333 17.067 136.533-12.8 38.4-34.133 64-38.4 64-8.533 4.267-21.333 8.533-29.867 0s-8.533-21.333-4.267-29.867c0 0 72.533-85.333 21.333-149.333-72.533-93.867 4.267-213.333 8.533-217.6zM170.667 563.2c4.267-4.267 8.533-8.533 17.067-8.533 4.267 0 8.533 0 12.8 4.267 8.533 4.267 12.8 17.067 4.267 29.867 0 0-64 102.4-8.533 170.667 29.867 38.4 34.133 85.333 12.8 136.533-12.8 34.133-38.4 59.733-38.4 59.733-4.267 8.533-21.333 8.533-29.867 4.267-8.533-8.533-8.533-21.333 0-29.867 0 0 72.533-85.333 21.333-149.333-72.533-93.867 4.267-213.333 8.533-217.6zM307.2 563.2c4.267-4.267 8.533-8.533 17.067-8.533 4.267 0 8.533 0 12.8 4.267 8.533 4.267 8.533 17.067 4.267 25.6 0 0-64 102.4-8.533 170.667 29.867 38.4 34.133 85.333 17.067 136.533-17.067 38.4-38.4 64-42.667 64-4.267 8.533-17.067 8.533-25.6 4.267-8.533-8.533-12.8-21.333-4.267-29.867 0 0 72.533-85.333 21.333-149.333-72.533-93.867 4.267-213.333 8.533-217.6zM1169.067 110.933h-42.667c-8.533 256-209.067 460.8-460.8 486.4v17.067c25.6 17.067 42.667 42.667 42.667 72.533 0 46.933-38.4 85.333-85.333 85.333 0 0 0 0 0 0-46.933 0-85.333-38.4-85.333-85.333 0-29.867 17.067-59.733 42.667-72.533v-21.333c-260.267-21.333-460.8-226.133-469.333-482.133h-42.667c-38.4 0-68.267-29.867-68.267-68.267v-25.6c0-38.4 29.867-68.267 68.267-68.267h1100.8c38.4 0 68.267 29.867 68.267 68.267v25.6c0 38.4-29.867 68.267-68.267 68.267zM571.733 691.2c0 25.6 21.333 42.667 42.667 42.667 0 0 0 0 0 0 25.6 0 42.667-21.333 42.667-42.667 0-17.067-12.8-34.133-29.867-42.667-8.533-4.267-12.8-8.533-12.8-17.067v-29.867h-8.533v25.6c0 8.533-4.267 17.067-12.8 17.067-8.533 8.533-21.333 25.6-21.333 46.933zM1194.667 17.067c0-12.8-12.8-25.6-25.6-25.6h-1100.8c-17.067 0-25.6 8.533-25.6 25.6v25.6c0 12.8 12.8 25.6 25.6 25.6h34.133c0 0 0 0 0 0h733.867c12.8 0 21.333 8.533 21.333 21.333s-8.533 21.333-21.333 21.333h-682.667c12.8 247.467 213.333 443.733 465.067 443.733h4.267c247.467 0 452.267-200.533 465.067-443.733h-115.2c-12.8 0-21.333-8.533-21.333-21.333s8.533-21.333 21.333-21.333h200.533c12.8 0 25.6-12.8 25.6-25.6v-25.6z" />
<glyph unicode="&#xe928;" glyph-name="girls" horiz-adv-x="812" d="M282.483 549.076c-10.593 0-17.655-7.062-17.655-17.655v-17.655c0-10.593 7.062-17.655 17.655-17.655s17.655 7.062 17.655 17.655v17.655c0 10.593-7.062 17.655-17.655 17.655zM529.655 549.076c-10.593 0-17.655-7.062-17.655-17.655v-17.655c0-10.593 7.062-17.655 17.655-17.655s17.655 7.062 17.655 17.655v17.655c0 10.593-7.062 17.655-17.655 17.655zM466.097 421.959c-14.124-10.593-35.31-14.124-60.028-14.124s-45.903 7.062-60.028 14.124c-7.062 3.531-17.655 3.531-24.717-3.531-3.531-7.062-3.531-17.655 3.531-24.717 21.186-14.124 49.434-21.186 81.214-21.186s60.028 7.062 81.214 21.186c7.062 3.531 10.593 14.124 3.531 24.717-7.062 7.062-14.124 7.062-24.717 3.531zM805.076 301.903c3.531 7.062 10.593 14.124 3.531 24.717-17.655 31.779-31.779 120.055-45.903 215.393-7.062 45.903-14.124 95.338-24.717 141.241 3.531 3.531 10.593 7.062 10.593 14.124l35.31 77.683c3.531 10.593 3.531 24.717-3.531 31.779-7.062 10.593-17.655 14.124-28.248 14.124l-49.434-3.531c-28.248 52.966-81.214 95.338-148.303 123.586-56.497 24.717-116.524 31.779-148.303 31.779 0 0 0 0 0 0s0 0 0 0 0 0 0 0 0 0 0 0c-67.090 0-275.421-38.841-317.793-208.331-17.655-67.090-28.248-144.772-38.841-222.455-14.124-91.807-28.248-180.083-45.903-215.393-3.531-10.593 0-17.655 3.531-24.717 7.062-10.593 28.248-42.372 74.152-74.152 24.717-17.655 56.497-31.779 88.276-38.841l-52.966-14.124c-38.841-10.593-67.090-42.372-74.152-81.214l-17.655-81.214c-3.531-14.124 0-31.779 10.593-42.372 10.593-14.124 28.248-21.186 42.372-21.186h656.772c14.124 0 31.779 7.062 38.841 17.655 10.593 10.593 14.124 28.248 10.593 42.372l-17.655 81.214c-7.062 38.841-35.31 70.621-74.152 81.214l-52.966 14.124c31.779 7.062 63.559 21.186 91.807 38.841 45.903 35.31 70.621 67.090 74.152 77.683zM755.641 785.655c0 0 0 0 0 0s0 0 0 0l-31.779-77.683c0 0 0 0 0 0s0 0 0 0l-52.966 60.028 7.062 14.124 77.683 3.531zM600.276 785.655c0 0 0 3.531 0 0l14.124 35.31c0 0 0 0 0 0s0 0 0 0 0 0 0 0l31.779-14.124c0 0 0 0 0 0s0 0 0 0l-10.593-35.31c0 0 0 0 0 0s0 0 0 0v0l-35.31 14.124zM529.655 888.055c0 0 0 0 0 0l52.966-63.559-7.062-14.124-81.214-3.531c0 0 0 0 0 0s0 0 0 0l35.31 81.214c-3.531-3.531-3.531 0 0 0zM642.648 845.683l-10.593 3.531c-7.062 3.531-17.655 3.531-24.717 0 0 0 0 0-3.531 0l-42.372 52.966c28.248-10.593 56.497-31.779 81.214-56.497zM35.31 319.559c17.655 42.372 31.779 123.586 45.903 215.393 10.593 77.683 24.717 155.366 38.841 222.455 17.655 63.559 60.028 112.993 130.648 144.772 63.559 28.248 127.117 35.31 155.366 35.31 21.186 0 67.090-3.531 112.993-21.186-10.593-3.531-17.655-10.593-24.717-21.186l-35.31-77.683c0-7.062 0-17.655 7.062-28.248s17.655-14.124 28.248-14.124c0 0 0 0 0 0l74.152 3.531c3.531-10.593 10.593-17.655 17.655-21.186l31.779-14.124c3.531-3.531 10.593-3.531 14.124-3.531s7.062 0 14.124 3.531c0 0 0 0 3.531 0l45.903-56.497c3.531-3.531 7.062-7.062 14.124-10.593 7.062-45.903 17.655-95.338 24.717-141.241 14.124-91.807 28.248-176.552 45.903-215.393-14.124-21.186-74.152-105.931-218.924-105.931l-35.31 10.593c-7.062 3.531-14.124 10.593-14.124 17.655v49.434c102.4 45.903 176.552 151.834 176.552 278.952 0 70.621-56.497 134.179-56.497 134.179-3.531 3.531-10.593 7.062-14.124 3.531-7.062 0-10.593-3.531-14.124-10.593 0-3.531-3.531-3.531-17.655-63.559-52.966-14.124-123.586-14.124-151.834-14.124l-31.779 77.683c-3.531 7.062-7.062 10.593-14.124 10.593s-10.593-3.531-14.124-7.062c-10.593-17.655-17.655-45.903-17.655-63.559h-130.648c0 7.062 0 17.655-3.531 24.717-3.531 42.372-10.593 52.966-17.655 60.028-7.062 3.531-17.655 3.531-21.186-3.531-35.31-35.31-56.497-91.807-56.497-151.834 0-127.117 74.152-233.048 176.552-278.952v-49.434c0-7.062-7.062-14.124-14.124-17.655l-35.31-10.593c-144.772 3.531-204.8 88.276-218.924 109.462zM296.607 188.91c21.186 7.062 38.841 28.248 38.841 49.434v38.841c24.717-7.062 45.903-10.593 70.621-10.593s49.434 3.531 70.621 10.593v-38.841c0-24.717 14.124-42.372 38.841-49.434l81.214-24.717c-28.248-77.683-105.931-130.648-190.676-130.648s-162.428 56.497-190.676 134.179l81.214 21.186zM406.069 301.903c-137.71 0-247.172 120.055-247.172 264.828 0 38.841 10.593 77.683 31.779 109.462 3.531-14.124 7.062-35.31 7.062-56.497 0-7.062 7.062-14.124 17.655-14.124h158.897c7.062 0 14.124 7.062 17.655 14.124 0 7.062 0 14.124 3.531 21.186l17.655-45.903c3.531-7.062 7.062-10.593 14.124-10.593 3.531 0 109.462-3.531 183.614 17.655 7.062 0 10.593 7.062 10.593 10.593 3.531 14.124 7.062 24.717 10.593 35.31 14.124-21.186 28.248-52.966 28.248-84.745-3.531-144.772-116.524-261.297-254.234-261.297zM737.986 86.51l17.655-81.214c0-7.062 0-10.593-3.531-14.124s-10.593-7.062-14.124-7.062h-81.214v35.31c0 10.593-7.062 17.655-17.655 17.655s-17.655-7.062-17.655-17.655v-35.31h-427.255v35.31c0 10.593-7.062 17.655-17.655 17.655s-17.655-7.062-17.655-17.655v-35.31h-81.214c-7.062 0-10.593 3.531-14.124 7.062s-3.531 10.593-3.531 14.124l17.655 81.214c7.062 28.248 24.717 45.903 49.434 56.497l56.497 17.655c35.31-91.807 123.586-155.366 222.455-155.366s190.676 63.559 222.455 155.366l56.497-17.655c28.248-10.593 45.903-31.779 52.966-56.497z" />
<glyph unicode="&#xe929;" glyph-name="music" horiz-adv-x="939" d="M938.667 746.667v196.267c0 8.533-4.267 17.067-12.8 21.333-8.533 8.533-17.067 8.533-25.6 8.533l-593.067-187.733c-12.8-4.267-21.333-12.8-21.333-25.6v-571.733c-34.133 17.067-72.533 29.867-115.2 29.867s-85.333-12.8-119.467-38.4c-34.133-25.6-51.2-59.733-51.2-98.133s17.067-72.533 55.467-98.133c29.867-21.333 72.533-34.133 115.2-34.133s85.333 12.8 119.467 38.4c34.133 25.6 55.467 59.733 55.467 98.133v452.267l537.6 166.4v-337.067c-29.867 21.333-72.533 34.133-110.933 34.133-42.667 0-85.333-12.8-119.467-38.4s-55.467-59.733-55.467-98.133c0-38.4 17.067-72.533 55.467-98.133 34.133-25.6 72.533-38.4 119.467-38.4s85.333 12.8 119.467 38.4c34.133 25.6 55.467 59.733 55.467 98.133v482.133c-8.533 0-8.533 0-8.533 0zM170.667 4.267c-59.733 0-110.933 34.133-110.933 76.8s51.2 76.8 110.933 76.8c59.733 0 110.933-34.133 110.933-76.8 4.267-42.667-46.933-76.8-110.933-76.8zM345.6 601.6v136.533l537.6 166.4v-136.533l-537.6-166.4zM768 192c-59.733 0-110.933 34.133-110.933 76.8s51.2 76.8 110.933 76.8c59.733 0 110.933-34.133 110.933-76.8s-51.2-76.8-110.933-76.8z" />
<glyph unicode="&#xe92a;" glyph-name="random" horiz-adv-x="1065" d="M172.032 419.84h-40.96c-20.48 0-36.864-16.384-36.864-36.864v-36.864c0-20.48 16.384-36.864 36.864-36.864h36.864c20.48 0 36.864 16.384 36.864 36.864v36.864c4.096 20.48-12.288 36.864-32.768 36.864zM172.032 342.016h-40.96v36.864h36.864v-36.864zM434.176 419.84h-36.864c-20.48 0-36.864-16.384-36.864-36.864v-36.864c0-20.48 16.384-36.864 36.864-36.864h36.864c20.48 0 36.864 16.384 36.864 36.864v36.864c0 20.48-16.384 36.864-36.864 36.864zM434.176 342.016h-36.864v36.864h36.864v-36.864zM700.416 833.536c-8.192 8.192-16.384 12.288-24.576 12.288s-20.48-4.096-28.672-12.288l-24.576-24.576c-16.384-16.384-16.384-36.864 0-53.248l24.576-24.576c8.192-8.192 16.384-12.288 24.576-12.288s20.48 4.096 24.576 12.288l24.576 24.576c8.192 8.192 12.288 16.384 12.288 24.576s-4.096 20.48-12.288 24.576l-20.48 28.672zM675.84 755.712l-24.576 24.576 24.576 28.672 24.576-24.576-24.576-28.672zM647.168 542.72c8.192-8.192 16.384-12.288 24.576-12.288s20.48 4.096 24.576 12.288l24.576 24.576c12.288 8.192 16.384 20.48 16.384 28.672s-4.096 20.48-12.288 24.576l-24.576 24.576c-8.192 8.192-16.384 12.288-24.576 12.288s-20.48 0-28.672-8.192l-24.576-24.576c-16.384-16.384-16.384-36.864 0-53.248l24.576-28.672zM675.84 624.64l24.576-24.576-24.576-24.576-24.576 24.576 24.576 24.576zM700.416 436.224c-8.192 8.192-16.384 12.288-24.576 12.288s-20.48-8.192-28.672-12.288l-24.576-24.576c-16.384-16.384-16.384-36.864 0-53.248l24.576-24.576c8.192-8.192 16.384-12.288 24.576-12.288s20.48 4.096 24.576 12.288l24.576 24.576c16.384 16.384 16.384 36.864 0 53.248l-20.48 24.576zM675.84 358.4l-24.576 24.576 24.576 24.576 24.576-24.576-24.576-24.576zM434.176 157.696h-36.864c-20.48 0-36.864-16.384-36.864-36.864v-36.864c0-20.48 16.384-36.864 36.864-36.864h36.864c20.48 0 36.864 16.384 36.864 36.864v36.864c0 16.384-16.384 36.864-36.864 36.864zM434.176 79.872h-36.864v36.864h36.864v-36.864zM172.032 157.696h-40.96c-20.48 0-36.864-16.384-36.864-36.864v-36.864c0-20.48 16.384-36.864 36.864-36.864h36.864c20.48 0 36.864 16.384 36.864 36.864v36.864c4.096 16.384-12.288 36.864-32.768 36.864zM172.032 79.872h-40.96v36.864h36.864v-36.864zM303.104 288.768h-36.864c-20.48 0-36.864-16.384-36.864-36.864v-36.864c0-20.48 16.384-36.864 36.864-36.864h36.864c20.48 0 36.864 16.384 36.864 36.864v36.864c0 20.48-16.384 36.864-36.864 36.864zM303.104 210.944h-36.864v36.864h36.864v-36.864zM1048.576 624.64l-335.872 331.776c-20.48 24.576-57.344 24.576-77.824 0l-335.872-335.872c-12.288-8.192-16.384-24.576-16.384-40.96s4.096-28.672 16.384-40.96l28.672-24.576h-270.336c-32.768 0-57.344-24.576-57.344-57.344v-450.56c0-32.768 24.576-57.344 57.344-57.344h454.656c32.768 0 57.344 24.576 57.344 57.344v270.336l69.632-65.536c12.288-12.288 24.576-16.384 40.96-16.384 12.288 0 28.672 4.096 40.96 16.384l331.776 331.776c12.288 8.192 16.384 24.576 16.384 40.96-4.096 16.384-8.192 28.672-20.48 40.96zM528.384 6.144c0-12.288-8.192-20.48-20.48-20.48h-450.56c-12.288 0-20.48 8.192-20.48 20.48v450.56c0 12.288 8.192 20.48 20.48 20.48h454.656c12.288 0 20.48-8.192 20.48-20.48v-450.56h-4.096zM1019.904 571.392l-331.776-335.872c-8.192-8.192-20.48-8.192-24.576 0l-94.208 94.208v126.976c0 8.192 0 12.288-4.096 20.48 0 4.096-4.096 8.192-4.096 12.288 0 0-4.096 4.096-4.096 4.096s-4.096 4.096-4.096 4.096c0 0-4.096 4.096-4.096 4.096-8.192 8.192-20.48 12.288-36.864 12.288h-126.976l-57.344 57.344c-4.096 4.096-4.096 4.096-4.096 12.288 0 4.096 0 8.192 4.096 12.288l335.872 331.776c8.192 8.192 20.48 8.192 24.576 0l331.776-331.776c4.096-4.096 4.096-8.192 4.096-12.288 4.096-8.192 0-8.192-4.096-12.288z" />
<glyph unicode="&#xe92b;" glyph-name="sports" horiz-adv-x="878" d="M859.429 874.057c-14.629 18.286-32.914 25.6-54.857 25.6h-73.143v21.943c0 29.257-21.943 51.2-51.2 51.2h-482.743c-29.257 0-51.2-21.943-51.2-51.2v-21.943h-73.143c-21.943 0-40.229-7.314-54.857-25.6-14.629-14.629-21.943-36.571-18.286-58.514 18.286-117.029 91.429-219.429 193.829-274.286 10.971-21.943 21.943-43.886 32.914-65.829 36.571-62.171 84.114-109.714 138.971-128 3.657-54.857-29.257-102.4-84.114-117.029 0 0 0 0 0 0-10.971-3.657-18.286-10.971-18.286-21.943v-109.714h-43.886c-40.229 0-69.486-32.914-69.486-69.486v-54.857c-3.657-14.629 7.314-25.6 21.943-25.6h537.6c14.629 0 21.943 10.971 21.943 21.943v54.857c0 40.229-32.914 69.486-69.486 69.486h-43.886v109.714c0 10.971-7.314 21.943-18.286 21.943 0 0 0 0 0 0-54.857 10.971-87.771 62.171-84.114 117.029 51.2 21.943 98.743 65.829 135.314 128 10.971 18.286 21.943 40.229 32.914 65.829 102.4 54.857 175.543 157.257 193.829 274.286 3.657 25.6-3.657 47.543-18.286 62.171zM47.543 822.857c0 7.314 0 14.629 7.314 21.943 3.657 3.657 10.971 7.314 18.286 7.314h73.143v-43.886c0-69.486 7.314-135.314 25.6-193.829-65.829 51.2-109.714 124.343-124.343 208.457zM661.943 51.2c14.629 0 21.943-10.971 21.943-21.943v-32.914h-490.057v32.914c0 14.629 10.971 21.943 21.943 21.943h446.171zM570.514 186.514v-84.114h-259.657v84.114h259.657zM373.029 230.4c7.314 7.314 10.971 14.629 14.629 21.943 14.629 25.6 25.6 51.2 25.6 80.457 7.314 0 18.286 0 25.6 0 10.971 0 18.286 0 29.257 3.657 0-40.229 14.629-73.143 40.229-102.4h-135.314v-3.657zM683.886 808.229c0-117.029-25.6-226.743-76.8-307.2-47.543-76.8-106.057-120.686-171.886-120.686-62.171 0-124.343 43.886-171.886 120.686-43.886 80.457-69.486 190.171-69.486 307.2v113.371c0 0 0 3.657 3.657 3.657h486.4c0 0 3.657 0 3.657-3.657v-113.371zM830.171 822.857c-14.629-84.114-58.514-157.257-124.343-208.457 18.286 58.514 25.6 128 25.6 193.829v43.886h73.143c7.314 0 14.629-3.657 21.943-10.971 3.657-3.657 3.657-10.971 3.657-18.286zM581.486 727.771c-3.657 7.314-10.971 14.629-18.286 14.629l-73.143 10.971-32.914 65.829c-3.657 7.314-10.971 14.629-21.943 14.629-7.314 0-18.286-3.657-21.943-14.629l-32.914-65.829-73.143-10.971c-7.314 0-14.629-7.314-18.286-14.629 3.657-7.314 3.657-14.629 10.971-21.943l51.2-51.2-10.971-69.486c0-7.314 3.657-18.286 10.971-21.943s18.286-7.314 25.6 0l65.829 32.914 65.829-32.914c3.657 0 7.314-3.657 10.971-3.657s10.971 0 14.629 3.657c7.314 3.657 10.971 14.629 10.971 21.943l-10.971 69.486 51.2 51.2c0 7.314 0 14.629-3.657 21.943zM482.743 680.229c-3.657-7.314-7.314-14.629-7.314-21.943l7.314-36.571-32.914 18.286c-3.657 0-7.314 3.657-10.971 3.657s-7.314 0-10.971-3.657l-32.914-18.286 7.314 36.571c0 7.314 0 14.629-7.314 21.943l-25.6 25.6 36.571 3.657c7.314 0 14.629 7.314 18.286 14.629l14.629 32.914 14.629-32.914c3.657-7.314 10.971-10.971 18.286-14.629l36.571-3.657-25.6-25.6z" />
<glyph unicode="&#xe92c;" glyph-name="students" horiz-adv-x="1058" d="M744.107 58.027c-10.24 3.413-20.48-3.413-20.48-13.653l-17.067-71.68c-3.413-10.24 3.413-20.48 13.653-20.48 0 0 3.413 0 3.413 0 6.827 0 13.653 6.827 17.067 13.653l17.067 71.68c3.413 6.827-3.413 17.067-13.653 20.48zM529.067 423.253c3.413 0 3.413 0 6.827 0l194.56 81.92c10.24 3.413 13.653 13.653 10.24 23.893s-13.653 13.653-23.893 10.24l-187.733-78.507-494.933 215.040v3.413c0 10.24-6.827 20.48-17.067 20.48s-17.067-10.24-17.067-20.48v-17.067c0-6.827 3.413-13.653 10.24-17.067l512-218.453c3.413-3.413 3.413-3.413 6.827-3.413zM737.28 235.52c-3.413 10.24-13.653 13.653-23.893 6.827-34.133-17.067-88.747-37.547-167.253-40.96v163.84c0 10.24-6.827 17.067-17.067 17.067s-17.067-6.827-17.067-17.067v-163.84c-218.453 6.827-290.133 143.36-300.373 167.253v122.88c0 10.24-6.827 17.067-17.067 17.067s-17.067-6.827-17.067-17.067v-129.707c0-3.413 0-3.413 0-6.827 3.413-6.827 78.507-194.56 351.573-194.56 95.573 0 163.84 23.893 201.387 44.373 10.24 13.653 13.653 23.893 6.827 30.72zM795.307 40.96c-10.24 0-17.067-6.827-17.067-17.067v-54.613c0-10.24 6.827-17.067 17.067-17.067s17.067 6.827 17.067 17.067v54.613c0 6.827-10.24 17.067-17.067 17.067zM1041.067 699.733c-10.24 0-17.067-10.24-17.067-20.48v-6.827l-211.627-88.747v34.133l235.52 102.4c6.827 0 10.24 6.827 10.24 13.653s-3.413 13.653-10.24 17.067l-512 221.867c-3.413 0-10.24 0-13.653 0l-512-218.453c-6.827-6.827-10.24-10.24-10.24-20.48 0-6.827 3.413-13.653 10.24-17.067l512-218.453c3.413 0 3.413 0 6.827 0s3.413 0 6.827 0l184.32 78.507c10.24 3.413 13.653 13.653 10.24 23.893s-13.653 13.653-23.893 10.24l-177.493-75.093-464.213 197.973 464.213 197.973 464.213-197.973-201.387-85.333-194.56 75.093c0 3.413 0 6.827 0 10.24 0 30.72-30.72 54.613-71.68 54.613s-71.68-23.893-71.68-54.613c0-30.72 30.72-54.613 71.68-54.613 17.067 0 34.133 3.413 44.373 13.653l201.387-78.507v-450.56c-20.48-6.827-34.133-27.307-34.133-51.2 0-30.72 23.893-54.613 51.2-54.613 30.72 0 51.2 23.893 51.2 54.613 0 23.893-13.653 44.373-34.133 51.2v102.4c51.2 40.96 68.267 92.16 68.267 95.573s0 3.413 0 6.827v126.293c0 10.24-6.827 17.067-17.067 17.067s-17.067-6.827-17.067-17.067v-126.293c-3.413-6.827-13.653-30.72-34.133-54.613v225.28l235.52 102.4c13.653 6.827 17.067 13.653 17.067 20.48v17.067c0 10.24-6.827 20.48-17.067 20.48zM529.067 716.8c-20.48 0-34.133 10.24-34.133 17.067s13.653 17.067 34.133 17.067c20.48 0 34.133-10.24 34.133-17.067s-13.653-17.067-34.133-17.067zM795.307 95.573c-10.24 0-17.067 6.827-17.067 17.067s6.827 17.067 17.067 17.067c10.24 0 17.067-6.827 17.067-17.067s-10.24-17.067-17.067-17.067zM863.573 44.373c-3.413 10.24-13.653 17.067-20.48 13.653-10.24-3.413-13.653-13.653-13.653-20.48l17.067-71.68c3.413-6.827 10.24-13.653 17.067-13.653 0 0 3.413 0 3.413 0 10.24 3.413 13.653 13.653 13.653 20.48l-17.067 71.68z" />
<glyph unicode="&#xe92d;" glyph-name="talkshow" horiz-adv-x="985" d="M957.046 626.215c-82.708 15.754-161.477 51.2-224.492 110.277s-102.4 133.908-118.154 208.738c82.708 51.2 204.8 31.508 291.446-47.262 82.708-78.769 102.4-192.985 51.2-271.754zM897.969 571.077c-78.769 19.692-153.6 59.077-216.615 118.154s-102.4 126.031-126.031 200.862c-51.2-78.769-35.446-192.985 51.2-271.754s208.738-94.523 291.446-47.262zM563.2 220.554c-106.338 0-181.169-63.015-244.185-114.215-74.831-59.077-137.846-110.277-228.431-86.646-19.692 11.815-19.692 23.631-19.692 27.569 0 23.631 27.569 55.138 43.323 66.954 0 0 3.938 3.938 3.938 3.938 23.631-7.877 51.2-3.938 70.892 15.754l480.492 370.215c-39.385 15.754-78.769 39.385-110.277 70.892s-55.138 66.954-74.831 102.4l-393.846-445.046c-15.754-15.754-23.631-39.385-19.692-59.077 0 0-3.938 0-3.938-3.938-7.877-3.938-74.831-59.077-70.892-122.092 0-23.631 11.815-55.138 55.138-78.769l7.877-3.938c31.508-11.815 55.138-15.754 78.769-15.754 94.523 0 161.477 55.138 224.492 110.277 63.015 51.2 122.092 98.462 200.862 98.462 181.169 0 319.015-181.169 322.954-185.108 11.815-15.754 31.508-19.692 47.262-7.877s19.692 31.508 7.877 47.262c-3.938 7.877-161.477 208.738-378.092 208.738z" />
<glyph unicode="&#xe92e;" glyph-name="likedvideos" horiz-adv-x="1152" d="M0 960v-1024h1152.16v1024h-1152.16zM226.416 41.946h-121.325v121.325h121.325v-121.325zM226.416 272.207h-121.325v121.325h121.325v-121.325zM226.416 502.468h-121.325v121.325h121.325v-121.325zM226.416 733.156h-121.325v121.325h121.325v-121.325zM452.833 283.741c0-5.554-2.136-10.253-5.981-14.525-4.272-4.272-8.971-5.981-14.525-5.981h-93.13c-5.554 0-10.68 2.136-14.525 5.981-3.845 4.272-5.981 8.971-5.981 14.525v206.338c0 5.554 2.136 10.68 5.981 14.525 4.272 4.272 8.971 5.981 14.525 5.981h93.13c5.554 0 10.68-2.136 14.525-5.981 3.845-4.272 5.981-8.971 5.981-14.525v-206.338zM822.361 417.455c0.854-16.234-3.845-31.186-14.098-44.429 3.845-11.962 3.845-24.778 0-37.594-3.418-12.389-8.971-22.214-17.515-30.331 2.136-23.923-3.418-43.574-15.806-58.526-13.67-16.234-35.030-24.778-63.653-25.205h-41.866c-14.098 0-29.477 1.709-46.565 5.126-16.661 3.418-29.904 6.408-39.302 9.398s-22.214 7.262-38.875 12.816c-26.486 9.398-43.574 14.098-50.837 14.098-5.554 0-10.68 2.136-14.525 6.408-4.272 3.845-5.981 8.971-5.981 14.525v207.192c0 5.554 1.709 9.826 5.981 14.098 3.845 3.845 8.544 6.408 14.098 6.408 5.126 0.427 13.243 6.835 24.778 19.224 11.107 12.389 22.214 25.205 32.467 39.302 14.525 18.797 25.632 31.613 32.467 38.875 3.845 3.845 7.262 8.971 10.253 15.379 2.563 6.408 4.699 11.534 5.554 15.806 0.854 3.845 2.563 10.68 4.272 19.651 1.282 8.544 2.99 14.952 4.272 19.651s3.418 10.253 6.408 16.661c2.99 6.408 6.835 11.962 11.107 16.234s8.971 5.981 14.525 5.981c9.826 0 18.797-1.282 26.486-3.418s14.098-5.126 19.224-8.544c5.126-3.418 9.398-7.69 12.816-13.243s5.981-10.253 7.69-14.525 2.99-9.826 3.845-16.234c0.854-6.408 1.282-11.534 1.709-14.525 0-3.418 0-7.262 0-12.816 0-8.117-0.854-16.234-2.99-24.778-2.136-8.117-4.272-14.525-5.981-19.224-2.136-4.699-5.126-10.68-8.971-17.942-0.427-1.282-1.709-3.418-3.418-5.981-1.282-2.563-2.563-5.126-3.418-7.262s-1.709-4.699-2.563-7.69h89.285c16.661 0 31.186-5.981 43.574-18.37s18.37-26.914 18.37-43.574c0-18.37-5.981-34.603-17.942-48.274 3.418-8.971 5.126-17.088 5.126-24.35zM1047.069 41.946h-121.325v121.325h121.325v-121.325zM1047.069 272.207h-121.325v121.325h121.325v-121.325zM1047.069 502.468h-121.325v121.325h121.325v-121.325zM1047.069 733.156h-121.325v121.325h121.325v-121.325z" />
<glyph unicode="&#xe92f;" glyph-name="editorialChoice" horiz-adv-x="1152" d="M0 960v-1024h1152.16v1024h-1152.16zM226.416 41.946h-121.325v121.325h121.325v-121.325zM226.416 272.207h-121.325v121.325h121.325v-121.325zM226.416 502.468h-121.325v121.325h121.325v-121.325zM226.416 733.156h-121.325v121.325h121.325v-121.325zM727.523 225.642l-149.093 89.712-149.093-89.712 39.302 169.599-131.578 114.063 173.443 14.952 67.925 159.773 67.925-159.773 173.443-14.952-131.578-114.063 39.302-169.599zM1047.069 41.946h-121.325v121.325h121.325v-121.325zM1047.069 272.207h-121.325v121.325h121.325v-121.325zM1047.069 502.468h-121.325v121.325h121.325v-121.325zM1047.069 733.156h-121.325v121.325h121.325v-121.325z" />
<glyph unicode="&#xe930;" glyph-name="promote" horiz-adv-x="1287" d="M1107.565 149.554c21.223 11.938 27.855 38.466 15.917 59.689l-415.171 726.881c-10.611 21.223-37.14 30.508-59.689 18.57-21.223-10.611-30.508-37.14-18.57-59.689 0-1.326 1.326-2.653 1.326-3.979l18.57-30.508-561.078-648.622-6.632 13.264c-13.264 19.896-39.793 26.528-61.016 13.264-19.896-11.938-26.528-37.14-15.917-57.036l110.093-193.658c11.938-21.223 38.466-29.181 59.689-17.244s29.181 38.466 17.244 59.689l-10.611 19.896 148.56 27.855 29.181-51.731c53.057-87.544 165.803-116.725 254.674-64.995 63.668 38.466 99.482 110.093 88.87 184.373l322.321 59.689 22.549-39.793c11.938-21.223 38.466-27.855 59.689-15.917zM567.71 34.155c-46.425-26.528-106.114-10.611-132.642 35.813l-13.264 23.876 194.984 35.813c3.979-38.466-14.591-75.606-49.078-95.503zM722.902 603.192l-500.062-392.622c-2.653-2.653-7.959-1.326-10.611 1.326-1.326 2.653-1.326 6.632 0 9.285l439.047 506.694c5.306 6.632 14.591 6.632 21.223 1.326 1.326-1.326 2.653-2.653 2.653-3.979l51.731-90.197c7.959-10.611 5.306-23.876-3.979-31.834zM1208.373 739.813c11.938-19.896 3.979-45.098-15.917-57.036 0 0 0 0 0 0l-144.58-82.238c-19.896-11.938-45.098-3.979-57.036 15.917s-3.979 45.098 15.917 57.036v0l144.58 82.238c19.896 10.611 45.098 3.979 57.036-15.917 0 0 0 0 0 0zM1071.751 910.922c15.917-14.591 17.244-38.466 3.979-55.71l-106.114-133.969c-14.591-17.244-39.793-21.223-57.036-6.632s-21.223 39.793-6.632 57.036l106.114 133.969c14.591 17.244 39.793 19.896 57.036 6.632 1.326 0 2.653-1.326 2.653-1.326zM1252.145 487.793l-168.456-23.876c-22.549-2.653-42.446 11.938-46.425 34.487s11.938 42.446 34.487 46.425l168.456 23.876c22.549 2.653 42.446-11.938 46.425-34.487 2.653-22.549-13.264-43.772-34.487-46.425v0 0z" />
<glyph unicode="&#xe931;" glyph-name="connected" horiz-adv-x="1026" d="M906.3 258.19v206.91h-376.2v172.71c66.69 8.55 119.7 66.69 119.7 135.090 0 75.24-61.56 136.8-136.8 136.8s-136.8-61.56-136.8-136.8c0-70.11 53.010-126.54 119.7-135.090v-172.71h-376.2v-206.91c-66.69-8.55-119.7-66.69-119.7-135.090 0-75.24 61.56-136.8 136.8-136.8s136.8 61.56 136.8 136.8c0 70.11-53.010 126.54-119.7 135.090v172.71h342v-172.71c-66.69-8.55-119.7-66.69-119.7-135.090 0-75.24 61.56-136.8 136.8-136.8s136.8 61.56 136.8 136.8c0 70.11-53.010 126.54-119.7 135.090v172.71h342v-172.71c-66.69-8.55-119.7-66.69-119.7-135.090 0-75.24 61.56-136.8 136.8-136.8s136.8 61.56 136.8 136.8c0 70.11-53.010 126.54-119.7 135.090zM410.4 772.9c0 56.43 46.17 102.6 102.6 102.6s102.6-46.17 102.6-102.6-46.17-102.6-102.6-102.6-102.6 46.17-102.6 102.6zM239.399 123.1c0-56.43-46.17-102.6-102.6-102.6s-102.6 46.17-102.6 102.6 46.17 102.6 102.6 102.6 102.6-46.17 102.6-102.6zM615.6 123.1c0-56.43-46.17-102.6-102.6-102.6s-102.6 46.17-102.6 102.6 46.17 102.6 102.6 102.6 102.6-46.17 102.6-102.6zM889.2 20.5c-56.43 0-102.6 46.17-102.6 102.6s46.17 102.6 102.6 102.6 102.6-46.17 102.6-102.6-46.17-102.6-102.6-102.6z" />
<glyph unicode="&#xe932;" glyph-name="alltime" d="M897.32 738.309v126.68h-277.994v52.784h-63.34v-52.784h-214.652v52.784h-63.34v-52.784h-277.994v-760.082h126.68v-126.68h897.32v760.082h-126.68zM277.994 801.649v-52.784h63.34v52.784h214.654v-42.227h63.34v42.227h214.652v-105.567h-770.639v105.567h214.654zM63.34 632.742h770.639v-464.495h-770.639v464.495zM960.66 41.567h-770.639v63.34h707.299v570.062h63.34v-633.402zM205.856 358.268h105.567v-105.567h-105.567v105.567zM395.876 358.268h105.567v-105.567h-105.567v105.567zM585.897 358.268h105.567v-105.567h-105.567v105.567zM395.876 548.289h105.567v-105.567h-105.567v105.567zM585.897 548.289h105.567v-105.567h-105.567v105.567zM205.856 548.289h105.567v-105.567h-105.567v105.567z" />
<glyph unicode="&#xe933;" glyph-name="day" d="M706.76 851.576v60.235h-72.282v-60.235h-244.955v60.235h-72.282v-60.235h-317.24v-867.388h1024v867.388h-317.24zM317.24 779.294v-60.235h72.282v60.235h244.955v-48.188h72.282v48.188h244.958v-120.471h-879.435v120.471h244.958zM72.282 56.471v530.071h879.435v-530.071h-879.435zM383.482 409.17c-10.009 10.794-22.434 19.338-37.274 25.636-14.842 6.293-32.163 9.445-51.949 9.445h-89.389v-239.496h89.389c17.989 0 34.349 2.867 49.080 8.602 14.726 5.734 27.323 13.83 37.78 24.287s18.495 23.048 24.121 37.78c5.616 14.726 8.433 31.202 8.433 49.417 0 16.413-2.532 31.877-7.59 46.381s-12.596 27.154-22.6 37.948zM353.123 296.337c-2.814-8.659-6.862-16.191-12.143-22.6-5.284-6.409-11.864-11.416-19.731-15.011-7.876-3.6-16.866-5.397-26.985-5.397h-34.069v142.348h34.069c9.893 0 18.774-1.687 26.651-5.060 7.869-3.373 14.505-8.211 19.902-14.505 5.397-6.298 9.495-13.777 12.31-22.432 2.809-8.659 4.216-18.273 4.216-28.841-0.002-10.346-1.41-19.849-4.219-28.503zM511.492 444.251l-87.365-239.496h56.669l18.218 53.634h74.545l18.555-53.634h56.669l-87.368 239.496h-49.923zM507.781 296.508l28.672 84.667 27.997-84.667h-56.669zM741.545 334.285l-51.61 109.966h-60.043l83.992-157.188v-82.308h54.98v81.631l85.341 157.865h-60.377z" />
<glyph unicode="&#xe934;" glyph-name="month" d="M706.76 851.576v60.235h-72.282v-60.235h-244.955v60.235h-72.282v-60.235h-317.24v-867.388h1024v867.388h-317.24zM317.24 779.294v-60.235h72.282v60.235h244.958v-48.188h72.282v48.188h244.955v-120.471h-879.435v120.471h244.958zM72.282 56.471v530.071h879.435v-530.071h-879.435zM491.595 310.167c-4.274 5.508-9.445 10.12-15.517 13.83s-12.818 6.24-20.239 7.59c13.266 2.92 23.95 8.655 32.045 17.203 8.096 8.544 12.143 19.449 12.143 32.72 0 9.445-2.14 18.157-6.409 26.142-4.274 7.98-10.177 14.895-17.709 20.745-7.537 5.845-16.529 10.457-26.985 13.83s-21.757 5.060-33.9 5.060c-7.874 0-15.801-0.732-23.781-2.193-7.985-1.465-15.632-3.542-22.938-6.24-7.31-2.699-14.057-6.072-20.239-10.12-6.187-4.048-11.3-8.659-15.348-13.83l34.406-39.803c1.571 2.699 3.764 5.508 6.578 8.433 2.809 2.92 6.183 5.619 10.12 8.096 3.932 2.472 8.486 4.496 13.661 6.072 5.171 1.571 11.131 2.361 17.878 2.361 2.472 0 5.281-0.337 8.433-1.012 3.147-0.675 6.072-1.802 8.77-3.373 2.699-1.576 5.002-3.768 6.915-6.578 1.908-2.814 2.867-6.24 2.867-10.288 0-4.949-1.576-9.165-4.722-12.649-3.152-3.489-7.421-6.356-12.818-8.602-5.397-2.25-11.695-3.879-18.89-4.891-7.199-1.012-14.958-1.518-23.275-1.518h-11.131v-44.863h11.131c21.135 0 37.384-2.25 48.742-6.746 11.353-4.501 17.035-11.922 17.035-22.263 0-4.274-1.012-8.043-3.036-11.3-2.024-3.262-4.78-5.961-8.264-8.096-3.489-2.14-7.479-3.768-11.975-4.891-4.501-1.128-9.223-1.687-14.167-1.687-8.096 0-15.068 1.234-20.914 3.71-5.85 2.472-10.683 5.339-14.505 8.602-3.826 3.258-6.804 6.578-8.939 9.951-2.14 3.373-3.542 6.072-4.216 8.096l-27.997-36.768c6.52-14.167 16.36-24.908 29.515-32.214 13.155-7.31 29.178-10.963 48.068-10.963 11.242 0 22.374 1.296 33.394 3.879 11.016 2.583 20.914 6.689 29.684 12.312 8.77 5.619 15.907 12.76 21.42 21.42 5.508 8.655 8.264 18.943 8.264 30.865 0 7.421-1.128 14.558-3.373 21.42-2.25 6.857-5.513 13.040-9.782 18.552zM652.158 446.277h-54.983c-0.226-0.453-2.082-2.361-5.566-5.734-3.489-3.373-7.927-7.031-13.324-10.963-5.397-3.937-11.3-7.537-17.712-10.794-6.407-3.262-12.649-4.891-18.721-4.891v-49.586c4.496 0 9.556 1.012 15.179 3.036 5.619 2.024 11.131 4.554 16.529 7.59 5.395 3.036 10.23 6.183 14.505 9.445 4.269 3.258 7.305 6.24 9.108 8.939v-139.987h-47.562v-48.574h145.386v48.574h-42.839v192.946z" />
</font>
</defs>
</svg>
